  0
SECTION
  2
HEADER
  9
$ACADVER
  1
AC1024
  9
$ACADMAINTVER
 70
6
  9
$DWGCODEPAGE
  3
ANSI_1252
  9
$LASTSAVEDBY
  1
ezdxf
  9
$INSBASE
 10
0.0
 20
0.0
 30
0.0
  9
$EXTMIN
 10
1e+20
 20
1e+20
 30
1e+20
  9
$EXTMAX
 10
-1e+20
 20
-1e+20
 30
-1e+20
  9
$LIMMIN
 10
0.0
 20
0.0
  9
$LIMMAX
 10
420.0
 20
297.0
  9
$ORTHOMODE
 70
0
  9
$REGENMODE
 70
1
  9
$FILLMODE
 70
1
  9
$QTEXTMODE
 70
0
  9
$MIRRTEXT
 70
1
  9
$LTSCALE
 40
1.0
  9
$ATTMODE
 70
1
  9
$TEXTSIZE
 40
2.5
  9
$TRACEWID
 40
1.0
  9
$TEXTSTYLE
  7
Standard
  9
$CLAYER
  8
0
  9
$CELTYPE
  6
ByLayer
  9
$CECOLOR
 62
256
  9
$CELTSCALE
 40
1.0
  9
$DISPSILH
 70
0
  9
$DIMSCALE
 40
1.0
  9
$DIMASZ
 40
2.5
  9
$DIMEXO
 40
0.625
  9
$DIMDLI
 40
3.75
  9
$DIMRND
 40
0.0
  9
$DIMDLE
 40
0.0
  9
$DIMEXE
 40
1.25
  9
$DIMTP
 40
0.0
  9
$DIMTM
 40
0.0
  9
$DIMTXT
 40
2.5
  9
$DIMCEN
 40
2.5
  9
$DIMTSZ
 40
0.0
  9
$DIMTOL
 70
0
  9
$DIMLIM
 70
0
  9
$DIMTIH
 70
0
  9
$DIMTOH
 70
0
  9
$DIMSE1
 70
0
  9
$DIMSE2
 70
0
  9
$DIMTAD
 70
1
  9
$DIMZIN
 70
8
  9
$DIMBLK
  1

  9
$DIMASO
 70
1
  9
$DIMSHO
 70
1
  9
$DIMPOST
  1

  9
$DIMAPOST
  1

  9
$DIMALT
 70
0
  9
$DIMALTD
 70
3
  9
$DIMALTF
 40
0.03937007874
  9
$DIMLFAC
 40
1.0
  9
$DIMTOFL
 70
1
  9
$DIMTVP
 40
0.0
  9
$DIMTIX
 70
0
  9
$DIMSOXD
 70
0
  9
$DIMSAH
 70
0
  9
$DIMBLK1
  1

  9
$DIMBLK2
  1

  9
$DIMSTYLE
  2
ISO-25
  9
$DIMCLRD
 70
0
  9
$DIMCLRE
 70
0
  9
$DIMCLRT
 70
0
  9
$DIMTFAC
 40
1.0
  9
$DIMGAP
 40
0.625
  9
$DIMJUST
 70
0
  9
$DIMSD1
 70
0
  9
$DIMSD2
 70
0
  9
$DIMTOLJ
 70
0
  9
$DIMTZIN
 70
8
  9
$DIMALTZ
 70
0
  9
$DIMALTTZ
 70
0
  9
$DIMUPT
 70
0
  9
$DIMDEC
 70
2
  9
$DIMTDEC
 70
2
  9
$DIMALTU
 70
2
  9
$DIMALTTD
 70
3
  9
$DIMTXSTY
  7
Standard
  9
$DIMAUNIT
 70
0
  9
$DIMADEC
 70
0
  9
$DIMALTRND
 40
0.0
  9
$DIMAZIN
 70
0
  9
$DIMDSEP
 70
44
  9
$DIMATFIT
 70
3
  9
$DIMFRAC
 70
0
  9
$DIMLDRBLK
  1

  9
$DIMLUNIT
 70
2
  9
$DIMLWD
 70
-2
  9
$DIMLWE
 70
-2
  9
$DIMTMOVE
 70
0
  9
$DIMFXL
 40
1.0
  9
$DIMFXLON
 70
0
  9
$DIMJOGANG
 40
0.785398163397
  9
$DIMTFILL
 70
0
  9
$DIMTFILLCLR
 70
0
  9
$DIMARCSYM
 70
0
  9
$DIMLTYPE
  6

  9
$DIMLTEX1
  6

  9
$DIMLTEX2
  6

  9
$DIMTXTDIRECTION
 70
0
  9
$LUNITS
 70
2
  9
$LUPREC
 70
4
  9
$SKETCHINC
 40
1.0
  9
$FILLETRAD
 40
10.0
  9
$AUNITS
 70
0
  9
$AUPREC
 70
2
  9
$MENU
  1
.
  9
$ELEVATION
 40
0.0
  9
$PELEVATION
 40
0.0
  9
$THICKNESS
 40
0.0
  9
$LIMCHECK
 70
0
  9
$CHAMFERA
 40
0.0
  9
$CHAMFERB
 40
0.0
  9
$CHAMFERC
 40
0.0
  9
$CHAMFERD
 40
0.0
  9
$SKPOLY
 70
0
  9
$TDCREATE
 40
2461077.490648148
  9
$TDUCREATE
 40
2458532.153996898
  9
$TDUPDATE
 40
2461077.490648148
  9
$TDUUPDATE
 40
2458532.1544311
  9
$TDINDWG
 40
0.0
  9
$TDUSRTIMER
 40
0.0
  9
$USRTIMER
 70
1
  9
$ANGBASE
 50
0.0
  9
$ANGDIR
 70
0
  9
$PDMODE
 70
0
  9
$PDSIZE
 40
0.0
  9
$PLINEWID
 40
0.0
  9
$SPLFRAME
 70
0
  9
$SPLINETYPE
 70
6
  9
$SPLINESEGS
 70
8
  9
$HANDSEED
  5
33
  9
$SURFTAB1
 70
6
  9
$SURFTAB2
 70
6
  9
$SURFTYPE
 70
6
  9
$SURFU
 70
6
  9
$SURFV
 70
6
  9
$UCSBASE
  2

  9
$UCSNAME
  2

  9
$UCSORG
 10
0.0
 20
0.0
 30
0.0
  9
$UCSXDIR
 10
1.0
 20
0.0
 30
0.0
  9
$UCSYDIR
 10
0.0
 20
1.0
 30
0.0
  9
$UCSORTHOREF
  2

  9
$UCSORTHOVIEW
 70
0
  9
$UCSORGTOP
 10
0.0
 20
0.0
 30
0.0
  9
$UCSORGBOTTOM
 10
0.0
 20
0.0
 30
0.0
  9
$UCSORGLEFT
 10
0.0
 20
0.0
 30
0.0
  9
$UCSORGRIGHT
 10
0.0
 20
0.0
 30
0.0
  9
$UCSORGFRONT
 10
0.0
 20
0.0
 30
0.0
  9
$UCSORGBACK
 10
0.0
 20
0.0
 30
0.0
  9
$PUCSBASE
  2

  9
$PUCSNAME
  2

  9
$PUCSORG
 10
0.0
 20
0.0
 30
0.0
  9
$PUCSXDIR
 10
1.0
 20
0.0
 30
0.0
  9
$PUCSYDIR
 10
0.0
 20
1.0
 30
0.0
  9
$PUCSORTHOREF
  2

  9
$PUCSORTHOVIEW
 70
0
  9
$PUCSORGTOP
 10
0.0
 20
0.0
 30
0.0
  9
$PUCSORGBOTTOM
 10
0.0
 20
0.0
 30
0.0
  9
$PUCSORGLEFT
 10
0.0
 20
0.0
 30
0.0
  9
$PUCSORGRIGHT
 10
0.0
 20
0.0
 30
0.0
  9
$PUCSORGFRONT
 10
0.0
 20
0.0
 30
0.0
  9
$PUCSORGBACK
 10
0.0
 20
0.0
 30
0.0
  9
$USERI1
 70
0
  9
$USERI2
 70
0
  9
$USERI3
 70
0
  9
$USERI4
 70
0
  9
$USERI5
 70
0
  9
$USERR1
 40
0.0
  9
$USERR2
 40
0.0
  9
$USERR3
 40
0.0
  9
$USERR4
 40
0.0
  9
$USERR5
 40
0.0
  9
$WORLDVIEW
 70
1
  9
$SHADEDGE
 70
3
  9
$SHADEDIF
 70
70
  9
$TILEMODE
 70
1
  9
$MAXACTVP
 70
64
  9
$PINSBASE
 10
0.0
 20
0.0
 30
0.0
  9
$PLIMCHECK
 70
0
  9
$PEXTMIN
 10
1e+20
 20
1e+20
 30
1e+20
  9
$PEXTMAX
 10
-1e+20
 20
-1e+20
 30
-1e+20
  9
$PLIMMIN
 10
0.0
 20
0.0
  9
$PLIMMAX
 10
420.0
 20
297.0
  9
$UNITMODE
 70
0
  9
$VISRETAIN
 70
1
  9
$PLINEGEN
 70
0
  9
$PSLTSCALE
 70
1
  9
$TREEDEPTH
 70
3020
  9
$CMLSTYLE
  2
Standard
  9
$CMLJUST
 70
0
  9
$CMLSCALE
 40
20.0
  9
$PROXYGRAPHICS
 70
1
  9
$MEASUREMENT
 70
1
  9
$CELWEIGHT
370
-1
  9
$ENDCAPS
280
0
  9
$JOINSTYLE
280
0
  9
$LWDISPLAY
290
0
  9
$INSUNITS
 70
6
  9
$HYPERLINKBASE
  1

  9
$STYLESHEET
  1

  9
$XEDIT
290
1
  9
$CEPSNTYPE
380
0
  9
$PSTYLEMODE
290
1
  9
$FINGERPRINTGUID
  2
{6B41E183-7716-44FA-B96C-44E351368349}
  9
$VERSIONGUID
  2
{8BC5CEE2-4156-4C20-9310-14B51E3004BA}
  9
$EXTNAMES
290
1
  9
$PSVPSCALE
 40
0.0
  9
$OLESTARTUP
290
0
  9
$SORTENTS
280
127
  9
$INDEXCTL
280
0
  9
$HIDETEXT
280
1
  9
$XCLIPFRAME
280
1
  9
$HALOGAP
280
0
  9
$OBSCOLOR
 70
257
  9
$OBSLTYPE
280
0
  9
$INTERSECTIONDISPLAY
280
0
  9
$INTERSECTIONCOLOR
 70
257
  9
$DIMASSOC
280
2
  9
$PROJECTNAME
  1

  9
$CAMERADISPLAY
290
0
  9
$LENSLENGTH
 40
50.0
  9
$CAMERAHEIGHT
 40
0.0
  9
$STEPSPERSEC
 40
24.0
  9
$STEPSIZE
 40
100.0
  9
$3DDWFPREC
 40
2.0
  9
$PSOLWIDTH
 40
0.005
  9
$PSOLHEIGHT
 40
0.08
  9
$LOFTANG1
 40
1.570796326795
  9
$LOFTANG2
 40
1.570796326795
  9
$LOFTMAG1
 40
0.0
  9
$LOFTMAG2
 40
0.0
  9
$LOFTPARAM
 70
7
  9
$LOFTNORMALS
280
1
  9
$LATITUDE
 40
37.795
  9
$LONGITUDE
 40
-122.394
  9
$NORTHDIRECTION
 40
0.0
  9
$TIMEZONE
 70
-8000
  9
$LIGHTGLYPHDISPLAY
280
1
  9
$TILEMODELIGHTSYNCH
280
1
  9
$CMATERIAL
347
20
  9
$SOLIDHIST
280
0
  9
$SHOWHIST
280
1
  9
$DWFFRAME
280
2
  9
$DGNFRAME
280
2
  9
$REALWORLDSCALE
290
1
  9
$INTERFERECOLOR
 62
256
  9
$CSHADOW
280
0
  9
$SHADOWPLANELOCATION
 40
0.0
  0
ENDSEC
  0
SECTION
  2
CLASSES
  0
CLASS
  1
ACDBDICTIONARYWDFLT
  2
AcDbDictionaryWithDefault
  3
ObjectDBX Classes
 90
0
 91
0
280
0
281
0
  0
CLASS
  1
SUN
  2
AcDbSun
  3
SCENEOE
 90
1153
 91
0
280
0
281
0
  0
CLASS
  1
VISUALSTYLE
  2
AcDbVisualStyle
  3
ObjectDBX Classes
 90
4095
 91
0
280
0
281
0
  0
CLASS
  1
MATERIAL
  2
AcDbMaterial
  3
ObjectDBX Classes
 90
1153
 91
0
280
0
281
0
  0
CLASS
  1
SCALE
  2
AcDbScale
  3
ObjectDBX Classes
 90
1153
 91
0
280
0
281
0
  0
CLASS
  1
TABLESTYLE
  2
AcDbTableStyle
  3
ObjectDBX Classes
 90
4095
 91
0
280
0
281
0
  0
CLASS
  1
MLEADERSTYLE
  2
AcDbMLeaderStyle
  3
ACDB_MLEADERSTYLE_CLASS
 90
4095
 91
0
280
0
281
0
  0
CLASS
  1
DICTIONARYVAR
  2
AcDbDictionaryVar
  3
ObjectDBX Classes
 90
0
 91
0
280
0
281
0
  0
CLASS
  1
CELLSTYLEMAP
  2
AcDbCellStyleMap
  3
ObjectDBX Classes
 90
1152
 91
0
280
0
281
0
  0
CLASS
  1
MENTALRAYRENDERSETTINGS
  2
AcDbMentalRayRenderSettings
  3
SCENEOE
 90
1024
 91
0
280
0
281
0
  0
CLASS
  1
ACDBDETAILVIEWSTYLE
  2
AcDbDetailViewStyle
  3
ObjectDBX Classes
 90
1025
 91
0
280
0
281
0
  0
CLASS
  1
ACDBSECTIONVIEWSTYLE
  2
AcDbSectionViewStyle
  3
ObjectDBX Classes
 90
1025
 91
0
280
0
281
0
  0
CLASS
  1
RASTERVARIABLES
  2
AcDbRasterVariables
  3
ISM
 90
0
 91
0
280
0
281
0
  0
CLASS
  1
ACDBPLACEHOLDER
  2
AcDbPlaceHolder
  3
ObjectDBX Classes
 90
0
 91
0
280
0
281
0
  0
CLASS
  1
LAYOUT
  2
AcDbLayout
  3
ObjectDBX Classes
 90
0
 91
0
280
0
281
0
  0
ENDSEC
  0
SECTION
  2
TABLES
  0
TABLE
  2
VPORT
  5
8
330
0
100
AcDbSymbolTable
 70
1
  0
VPORT
  5
23
330
8
100
AcDbSymbolTableRecord
100
AcDbViewportTableRecord
  2
*Active
 70
0
 10
0.0
 20
0.0
 11
1.0
 21
1.0
 12
0.0
 22
0.0
 13
0.0
 23
0.0
 14
0.5
 24
0.5
 15
0.5
 25
0.5
 16
0.0
 26
0.0
 36
1.0
 17
0.0
 27
0.0
 37
0.0
 40
1000.0
 41
1.34
 42
50.0
 43
0.0
 44
0.0
 50
0.0
 51
0.0
 71
0
 72
1000
 73
1
 74
3
 75
0
 76
0
 77
0
 78
0
281
0
 65
0
146
0.0
  0
ENDTAB
  0
TABLE
  2
LTYPE
  5
2
330
0
100
AcDbSymbolTable
 70
3
  0
LTYPE
  5
24
330
2
100
AcDbSymbolTableRecord
100
AcDbLinetypeTableRecord
  2
ByBlock
 70
0
  3

 72
65
 73
0
 40
0.0
  0
LTYPE
  5
25
330
2
100
AcDbSymbolTableRecord
100
AcDbLinetypeTableRecord
  2
ByLayer
 70
0
  3

 72
65
 73
0
 40
0.0
  0
LTYPE
  5
26
330
2
100
AcDbSymbolTableRecord
100
AcDbLinetypeTableRecord
  2
Continuous
 70
0
  3

 72
65
 73
0
 40
0.0
  0
ENDTAB
  0
TABLE
  2
LAYER
  5
1
330
0
100
AcDbSymbolTable
 70
2
  0
LAYER
  5
27
330
1
100
AcDbSymbolTableRecord
100
AcDbLayerTableRecord
  2
0
 70
0
 62
7
  6
Continuous
370
-3
390
13
347
21
  0
LAYER
  5
28
330
1
100
AcDbSymbolTableRecord
100
AcDbLayerTableRecord
  2
Defpoints
 70
0
 62
7
  6
Continuous
290
0
370
-3
390
13
347
21
  0
ENDTAB
  0
TABLE
  2
STYLE
  5
5
330
0
100
AcDbSymbolTable
 70
1
  0
STYLE
  5
29
330
5
100
AcDbSymbolTableRecord
100
AcDbTextStyleTableRecord
  2
Standard
 70
0
 40
0.0
 41
1.0
 50
0.0
 71
0
 42
2.5
  3
txt
  4

  0
ENDTAB
  0
TABLE
  2
VIEW
  5
7
330
0
100
AcDbSymbolTable
 70
0
  0
ENDTAB
  0
TABLE
  2
UCS
  5
6
330
0
100
AcDbSymbolTable
 70
0
  0
ENDTAB
  0
TABLE
  2
APPID
  5
3
330
0
100
AcDbSymbolTable
 70
3
  0
APPID
  5
2A
330
3
100
AcDbSymbolTableRecord
100
AcDbRegAppTableRecord
  2
ACAD
 70
0
  0
APPID
  5
30
330
3
100
AcDbSymbolTableRecord
100
AcDbRegAppTableRecord
  2
HATCHBACKGROUNDCOLOR
 70
0
  0
APPID
  5
31
330
3
100
AcDbSymbolTableRecord
100
AcDbRegAppTableRecord
  2
EZDXF
 70
0
  0
ENDTAB
  0
TABLE
  2
DIMSTYLE
  5
4
330
0
100
AcDbSymbolTable
 70
1
100
AcDbDimStyleTable
  0
DIMSTYLE
105
2B
330
4
100
AcDbSymbolTableRecord
100
AcDbDimStyleTableRecord
  2
Standard
 70
0
 40
1.0
 41
2.5
 42
0.625
 43
3.75
 44
1.25
 45
0.0
 46
0.0
 47
0.0
 48
0.0
 49
2.5
140
2.5
141
2.5
142
0.0
143
0.03937007874
144
1.0
145
0.0
146
1.0
147
0.625
148
0.0
 69
0
 70
0
 71
0
 72
0
 73
0
 74
0
 75
0
 76
0
 77
1
 78
8
 79
3
170
0
171
3
172
1
173
0
174
0
175
0
176
0
177
0
178
0
179
2
271
2
272
2
273
2
274
3
275
0
276
0
277
2
278
44
279
0
280
0
281
0
282
0
283
0
284
8
285
0
286
0
288
0
289
3
290
0
371
-2
372
-2
  0
ENDTAB
  0
TABLE
  2
BLOCK_RECORD
  5
9
330
0
100
AcDbSymbolTable
 70
2
  0
BLOCK_RECORD
  5
17
330
9
100
AcDbSymbolTableRecord
100
AcDbBlockTableRecord
  2
*Model_Space
340
1A
 70
0
280
1
281
0
  0
BLOCK_RECORD
  5
1B
330
9
100
AcDbSymbolTableRecord
100
AcDbBlockTableRecord
  2
*Paper_Space
340
1E
 70
0
280
1
281
0
  0
ENDTAB
  0
ENDSEC
  0
SECTION
  2
BLOCKS
  0
BLOCK
  5
18
330
17
100
AcDbEntity
  8
0
100
AcDbBlockBegin
  2
*Model_Space
 70
0
 10
0.0
 20
0.0
 30
0.0
  3
*Model_Space
  1

  0
ENDBLK
  5
19
330
17
100
AcDbEntity
  8
0
100
AcDbBlockEnd
  0
BLOCK
  5
1C
330
1B
100
AcDbEntity
  8
0
100
AcDbBlockBegin
  2
*Paper_Space
 70
0
 10
0.0
 20
0.0
 30
0.0
  3
*Paper_Space
  1

  0
ENDBLK
  5
1D
330
1B
100
AcDbEntity
  8
0
100
AcDbBlockEnd
  0
ENDSEC
  0
SECTION
  2
ENTITIES
  0
LWPOLYLINE
  5
2F
330
17
100
AcDbEntity
  8
PROFILE
 62
1
100
AcDbPolyline
 90
600
 70
128
 10
-72.03256803964423
 20
40.0
 10
-72.03102761484783
 20
40.06688963210702
 10
-72.02820438709546
 20
40.13377926421405
 10
-72.02453871976469
 20
40.20066889632107
 10
-72.02018621117334
 20
40.26755852842809
 10
-72.01523592893388
 20
40.33444816053512
 10
-72.00974748072967
 20
40.40133779264214
 10
-72.00376432281845
 20
40.46822742474916
 10
-71.99731943452073
 20
40.53511705685619
 10
-71.99043944635794
 20
40.60200668896321
 10
-71.98314620728937
 20
40.66889632107023
 10
-71.97545778922306
 20
40.735785953177256
 10
-71.96738943935722
 20
40.80267558528428
 10
-71.9589545000854
 20
40.8695652173913
 10
-71.95016476868565
 20
40.936454849498325
 10
-71.94103049732053
 20
41.003344481605346
 10
-71.93156065322927
 20
41.07023411371237
 10
-71.92176336236328
 20
41.137123745819395
 10
-71.91164575268546
 20
41.204013377926415
 10
-71.90121441221979
 20
41.270903010033436
 10
-71.89047540037741
 20
41.33779264214047
 10
-71.87943424795657
 20
41.40468227424749
 10
-71.86809595714269
 20
41.47157190635452
 10
-71.85646500150831
 20
41.53846153846154
 10
-71.8445455718402
 20
41.60535117056856
 10
-71.83234157900294
 20
41.67224080267559
 10
-71.81985647405347
 20
41.73913043478261
 10
-71.80709351900552
 20
41.80602006688963
 10
-71.79405578734756
 20
41.87290969899666
 10
-71.78074616404271
 20
41.93979933110368
 10
-71.76716734552878
 20
42.0066889632107
 10
-71.75332183971823
 20
42.07357859531773
 10
-71.73921196599825
 20
42.14046822742475
 10
-71.72483985523067
 20
42.20735785953177
 10
-71.71020744975202
 20
42.274247491638796
 10
-71.69531653219589
 20
42.34113712374582
 10
-71.68016897260718
 20
42.40802675585284
 10
-71.66476635261117
 20
42.474916387959865
 10
-71.6491101147954
 20
42.541806020066886
 10
-71.63320163067003
 20
42.60869565217391
 10
-71.6170422006677
 20
42.675585284280935
 10
-71.60063305414367
 20
42.742474916387955
 10
-71.58397534937576
 20
42.809364548494976
 10
-71.56707017356436
 20
42.876254180602004
 10
-71.5499185428324
 20
42.943143812709025
 10
-71.53252140222541
 20
43.01003344481605
 10
-71.51487962571146
 20
43.07692307692308
 10
-71.49699401618118
 20
43.1438127090301
 10
-71.4788653054478
 20
43.21070234113712
 10
-71.46049415424709
 20
43.27759197324415
 10
-71.4418811522374
 20
43.34448160535117
 10
-71.42302681799963
 20
43.41137123745819
 10
-71.40393161028666
 20
43.47826086956522
 10
-71.38459610881225
 20
43.54515050167224
 10
-71.36502073882926
 20
43.61204013377926
 10
-71.34520582561215
 20
43.67892976588629
 10
-71.32515166309794
 20
43.74581939799331
 10
-71.30485851388612
 20
43.812709030100336
 10
-71.28432660923873
 20
43.87959866220736
 10
-71.26355614908037
 20
43.94648829431438
 10
-71.24254730199812
 20
44.013377926421406
 10
-71.22130020524162
 20
44.080267558528426
 10
-71.19981496472303
 20
44.14715719063545
 10
-71.17809165501706
 20
44.214046822742475
 10
-71.15613031936088
 20
44.280936454849495
 10
-71.13393096965429
 20
44.347826086956516
 10
-71.11149358645955
 20
44.414715719063544
 10
-71.08881811900144
 20
44.481605351170565
 10
-71.06590448516734
 20
44.54849498327759
 10
-71.04275257150708
 20
44.61538461538461
 10
-71.01936223323307
 20
44.68227424749164
 10
-70.99573329422023
 20
44.74916387959866
 10
-70.971865547006
 20
44.81605351170569
 10
-70.94775875279038
 20
44.88294314381271
 10
-70.92341264143587
 20
44.94983277591973
 10
-70.89882691146752
 20
45.01672240802676
 10
-70.87400123007288
 20
45.08361204013378
 10
-70.84893523310205
 20
45.1505016722408
 10
-70.82362855162033
 20
45.21739130434783
 10
-70.79808085301539
 20
45.28428093645485
 10
-70.77229172774923
 20
45.35117056856187
 10
-70.7462607398255
 20
45.4180602006689
 10
-70.71998743086674
 20
45.48494983277592
 10
-70.69347132011427
 20
45.55183946488294
 10
-70.6667119044283
 20
45.618729096989966
 10
-70.63970865828786
 20
45.68561872909699
 10
-70.61246103379082
 20
45.75250836120401
 10
-70.58496846065388
 20
45.819397993311036
 10
-70.55723034621258
 20
45.886287625418056
 10
-70.52924607542131
 20
45.95317725752508
 10
-70.5010150108533
 20
46.020066889632105
 10
-70.47253649270058
 20
46.086956521739125
 10
-70.44380983877409
 20
46.153846153846146
 10
-70.41483434450353
 20
46.22073578595318
 10
-70.3856092829375
 20
46.2876254180602
 10
-70.35613390474339
 20
46.35451505016722
 10
-70.32640743820747
 20
46.42140468227425
 10
-70.29642908923483
 20
46.48829431438127
 10
-70.26619804134938
 20
46.55518394648829
 10
-70.23571345569391
 20
46.62207357859532
 10
-70.20497447103003
 20
46.68896321070234
 10
-70.17398020373814
 20
46.75585284280936
 10
-70.14272974781757
 20
46.82274247491639
 10
-70.11122217488642
 20
46.88963210702341
 10
-70.07945653418165
 20
46.95652173913043
 10
-70.04743185255904
 20
47.02341137123746
 10
-70.01514713449328
 20
47.09030100334448
 10
-69.98260136207777
 20
47.15719063545151
 10
-69.94979349502489
 20
47.22408026755853
 10
-69.91672247066575
 20
47.29096989966555
 10
-69.88338720395035
 20
47.357859531772576
 10
-69.84978658744753
 20
47.424749163879596
 10
-69.81591949134493
 20
47.49163879598662
 10
-69.78178476344908
 20
47.55852842809364
 10
-69.74738122918531
 20
47.625418060200666
 10
-69.7127076915978
 20
47.692307692307686
 10
-69.67776293134958
 20
47.759197324414714
 10
-69.64254570662698
 20
47.826086956521735
 10
-69.60705445752872
 20
47.89297658862876
 10
-69.57128769216307
 20
47.95986622073579
 10
-69.53524419410856
 20
48.02675585284281
 10
-69.49892270957736
 20
48.09364548494983
 10
-69.46232194741529
 20
48.16053511705686
 10
-69.42544057910179
 20
48.22742474916388
 10
-69.38827723874994
 20
48.29431438127091
 10
-69.35083052310647
 20
48.36120401337793
 10
-69.31309899155173
 20
48.42809364548495
 10
-69.27508116609971
 20
48.49498327759198
 10
-69.23677553139805
 20
48.561872909699
 10
-69.19818053472801
 20
48.62876254180602
 10
-69.15929458600449
 20
48.69565217391305
 10
-69.12011605777603
 20
48.76254180602007
 10
-69.08064328522481
 20
48.82943143812709
 10
-69.04087456616664
 20
48.896321070234116
 10
-69.00080816105095
 20
48.96321070234114
 10
-68.96044229296086
 20
49.03010033444816
 10
-68.91977514761305
 20
49.096989966555185
 10
-68.87880487335791
 20
49.163879598662206
 10
-68.83752958117942
 20
49.230769230769226
 10
-68.79594734469521
 20
49.297658862876254
 10
-68.75405620015654
 20
49.364548494983275
 10
-68.71185414644833
 20
49.4314381270903
 10
-68.6693391450891
 20
49.49832775919732
 10
-68.62650912023105
 20
49.56521739130435
 10
-68.58336195865996
 20
49.63210702341137
 10
-68.5398955097953
 20
49.6989966555184
 10
-68.49610758569017
 20
49.76588628762542
 10
-68.45199596103126
 20
49.83277591973244
 10
-68.40755837313893
 20
49.89966555183947
 10
-68.3627925219672
 20
49.96655518394649
 10
-68.31769607010368
 20
50.03344481605351
 10
-68.27226664276964
 20
50.10033444816054
 10
-68.22650182781999
 20
50.16722408026756
 10
-68.18039917574326
 20
50.23411371237458
 10
-68.13395619966163
 20
50.30100334448161
 10
-68.08717037533093
 20
50.36789297658863
 10
-68.04003914114058
 20
50.43478260869565
 10
-67.99255989811368
 20
50.50167224080268
 10
-67.94473000990698
 20
50.5685618729097
 10
-67.89654680281079
 20
50.63545150501672
 10
-67.84800756574913
 20
50.702341137123746
 10
-67.79910955027962
 20
50.76923076923077
 10
-67.74984997059354
 20
50.83612040133779
 10
-67.7002260035158
 20
50.903010033444815
 10
-67.65023478850492
 20
50.969899665551836
 10
-67.59987291739873
 20
51.036789297658856
 10
-67.54913611874227
 20
51.10367892976589
 10
-67.49802145770487
 20
51.17056856187291
 10
-67.44652597994418
 20
51.23745819397993
 10
-67.39464662581938
 20
51.30434782608696
 10
-67.34238023039113
 20
51.37123745819398
 10
-67.28972352342154
 20
51.438127090301
 10
-67.23667312937424
 20
51.50501672240803
 10
-67.18322556741431
 20
51.57190635451505
 10
-67.12937725140833
 20
51.63879598662207
 10
-67.07512448992433
 20
51.7056856187291
 10
-67.02046348623189
 20
51.77257525083612
 10
-66.965390338302
 20
51.83946488294314
 10
-66.90990103880716
 20
51.90635451505017
 10
-66.85399147512136
 20
51.97324414715719
 10
-66.79765742932005
 20
52.04013377926421
 10
-66.74089457818019
 20
52.10702341137124
 10
-66.68369849318019
 20
52.17391304347826
 10
-66.62606464049996
 20
52.24080267558528
 10
-66.56798838102088
 20
52.30769230769231
 10
-66.50946497032584
 20
52.37458193979933
 10
-66.45048955869916
 20
52.44147157190635
 10
-66.3910571911267
 20
52.508361204013376
 10
-66.33116280729575
 20
52.5752508361204
 10
-66.27080124159512
 20
52.642140468227424
 10
-66.20996722311509
 20
52.709030100334445
 10
-66.1486553756474
 20
52.77591973244147
 10
-66.08686021768527
 20
52.84280936454849
 10
-66.02457616242346
 20
52.90969899665552
 10
-65.96179751775816
 20
52.97658862876254
 10
-65.89851848628703
 20
53.04347826086957
 10
-65.83473316530926
 20
53.11036789297659
 10
-65.77043554682548
 20
53.17725752508361
 10
-65.70561951753783
 20
53.24414715719064
 10
-65.64027885884988
 20
53.31103678929766
 10
-65.57440724686677
 20
53.37792642140468
 10
-65.50799825239504
 20
53.44481605351171
 10
-65.44104534094275
 20
53.51170568561873
 10
-65.3735418680514
 20
53.57859531772576
 10
-65.30547876070624
 20
53.64548494983278
 10
-65.23684743395594
 20
53.7123745819398
 10
-65.16764105121072
 20
53.779264214046826
 10
-65.09785242692963
 20
53.84615384615385
 10
-65.02747402662054
 20
53.91304347826087
 10
-64.95649796684012
 20
53.979933110367895
 10
-64.8849160151939
 20
54.046822742474916
 10
-64.8127195903362
 20
54.11371237458194
 10
-64.73989976197021
 20
54.180602006688964
 10
-64.66644725084792
 20
54.247491638795985
 10
-64.59235242877016
 20
54.31438127090301
 10
-64.51760531858656
 20
54.381270903010034
 10
-64.4421955941956
 20
54.44816053511706
 10
-64.3661125805446
 20
54.51505016722408
 10
-64.28934525362963
 20
54.58193979933111
 10
-64.21188224049571
 20
54.64882943143813
 10
-64.13371181923657
 20
54.71571906354515
 10
-64.05482191899483
 20
54.78260869565218
 10
-63.97520011996193
 20
54.8494983277592
 10
-63.894833653378114
 20
54.91638795986622
 10
-63.81370940153246
 20
54.98327759197325
 10
-63.7318138977629
 20
55.05016722408027
 10
-63.649133326456145
 20
55.11705685618729
 10
-63.56565352304776
 20
55.18394648829432
 10
-63.48135997402214
 20
55.25083612040134
 10
-63.3962378169125
 20
55.31772575250836
 10
-63.31027184030087
 20
55.38461538461539
 10
-63.22344648381812
 20
55.45150501672241
 10
-63.13574583814395
 20
55.51839464882943
 10
-63.04714965976865
 20
55.585284280936456
 10
-62.957637069308916
 20
55.65217391304348
 10
-62.86719118913803
 20
55.7190635451505
 10
-62.775793885964994
 20
55.785953177257525
 10
-62.683425761402574
 20
55.852842809364546
 10
-62.59006615196724
 20
55.91973244147157
 10
-62.4956931290792
 20
55.9866220735786
 10
-62.400283499062425
 20
56.05351170568562
 10
-62.3038128031446
 20
56.12040133779264
 10
-62.206255317457135
 20
56.18729096989967
 10
-62.10758405303521
 20
56.25418060200669
 10
-62.00777075581771
 20
56.32107023411371
 10
-61.90678590664726
 20
56.38795986622074
 10
-61.80459872127024
 20
56.45484949832776
 10
-61.701177150336754
 20
56.52173913043478
 10
-61.59648787940062
 20
56.58862876254181
 10
-61.490496328919434
 20
56.65551839464883
 10
-61.38316665425451
 20
56.72240802675585
 10
-61.27446174567086
 20
56.78929765886288
 10
-61.16434322833731
 20
56.8561872909699
 10
-61.05277146232635
 20
56.92307692307692
 10
-60.93970196915674
 20
56.98996655518395
 10
-60.825080107718726
 20
57.05685618729097
 10
-60.70886105404843
 20
57.12374581939799
 10
-60.59099638884786
 20
57.19063545150502
 10
-60.47143273388518
 20
57.25752508361204
 10
-60.350111751994625
 20
57.32441471571906
 10
-60.22697014707656
 20
57.391304347826086
 10
-60.101939664097486
 20
57.45819397993311
 10
-59.97494708909
 20
57.525083612040135
 10
-59.84591424915281
 20
57.591973244147155
 10
-59.71475801245079
 20
57.65886287625418
 10
-59.58139028821485
 20
57.725752508361204
 10
-59.44571802674207
 20
57.79264214046823
 10
-59.30764321939564
 20
57.85953177257526
 10
-59.1670628986049
 20
57.92642140468227
 10
-59.02386453279528
 20
57.9933110367893
 10
-58.87790849955498
 20
58.06020066889633
 10
-58.72906846635903
 20
58.12709030100334
 10
-58.57720272729135
 20
58.19397993311037
 10
-58.422148743653686
 20
58.2608695652174
 10
-58.26372314396554
 20
58.32775919732441
 10
-58.101721723964104
 20
58.39464882943144
 10
-57.935919446604395
 20
58.46153846153847
 10
-57.76607044205922
 20
58.52842809364548
 10
-57.59190800771902
 20
58.59531772575251
 10
-57.41314460819212
 20
58.662207357859536
 10
-57.22943329247509
 20
58.72909698996655
 10
-57.04039670594858
 20
58.79598662207358
 10
-56.845616515257575
 20
58.862876254180605
 10
-56.644580969116795
 20
58.92976588628762
 10
-56.436684898149316
 20
58.99665551839465
 10
-56.22122971488683
 20
59.063545150501675
 10
-55.99742341376954
 20
59.130434782608695
 10
-55.764314474866765
 20
59.19732441471572
 10
-55.52075816375778
 20
59.264214046822744
 10
-55.265326413095394
 20
59.33110367892977
 10
-54.99614678263432
 20
59.39799331103679
 10
-54.71089602449249
 20
59.46488294314382
 10
-54.40653294077911
 20
59.53177257525084
 10
-54.07888289090145
 20
59.59866220735786
 10
-53.72173553521838
 20
59.66555183946489
 10
-53.3258753462585
 20
59.73244147157191
 10
-52.87555790861542
 20
59.79933110367893
 10
-52.34027586025772
 20
59.86622073578596
 10
-51.641129030773975
 20
59.93311036789298
 10
-50.0
 20
60.0
 10
50.0
 20
60.0
 10
51.641129030773975
 20
59.93311036789298
 10
52.34027586025772
 20
59.86622073578596
 10
52.87555790861542
 20
59.79933110367893
 10
53.3258753462585
 20
59.73244147157191
 10
53.72173553521838
 20
59.66555183946489
 10
54.07888289090145
 20
59.59866220735786
 10
54.40653294077911
 20
59.53177257525084
 10
54.71089602449249
 20
59.46488294314382
 10
54.99614678263432
 20
59.39799331103679
 10
55.265326413095394
 20
59.33110367892977
 10
55.52075816375778
 20
59.264214046822744
 10
55.764314474866765
 20
59.19732441471572
 10
55.99742341376954
 20
59.130434782608695
 10
56.22122971488683
 20
59.063545150501675
 10
56.436684898149316
 20
58.99665551839465
 10
56.644580969116795
 20
58.92976588628762
 10
56.845616515257575
 20
58.862876254180605
 10
57.04039670594858
 20
58.79598662207358
 10
57.22943329247509
 20
58.72909698996655
 10
57.41314460819212
 20
58.662207357859536
 10
57.59190800771902
 20
58.59531772575251
 10
57.76607044205922
 20
58.52842809364548
 10
57.935919446604395
 20
58.46153846153847
 10
58.101721723964104
 20
58.39464882943144
 10
58.26372314396554
 20
58.32775919732441
 10
58.422148743653686
 20
58.2608695652174
 10
58.57720272729135
 20
58.19397993311037
 10
58.72906846635903
 20
58.12709030100334
 10
58.87790849955498
 20
58.06020066889633
 10
59.02386453279528
 20
57.9933110367893
 10
59.1670628986049
 20
57.92642140468227
 10
59.30764321939564
 20
57.85953177257526
 10
59.44571802674207
 20
57.79264214046823
 10
59.58139028821485
 20
57.725752508361204
 10
59.71475801245079
 20
57.65886287625418
 10
59.84591424915281
 20
57.591973244147155
 10
59.97494708909
 20
57.525083612040135
 10
60.101939664097486
 20
57.45819397993311
 10
60.22697014707656
 20
57.391304347826086
 10
60.350111751994625
 20
57.32441471571906
 10
60.47143273388518
 20
57.25752508361204
 10
60.59099638884786
 20
57.19063545150502
 10
60.70886105404843
 20
57.12374581939799
 10
60.825080107718726
 20
57.05685618729097
 10
60.93970196915674
 20
56.98996655518395
 10
61.05277146232635
 20
56.92307692307692
 10
61.16434322833731
 20
56.8561872909699
 10
61.27446174567086
 20
56.78929765886288
 10
61.38316665425451
 20
56.72240802675585
 10
61.490496328919434
 20
56.65551839464883
 10
61.59648787940062
 20
56.58862876254181
 10
61.701177150336754
 20
56.52173913043478
 10
61.80459872127024
 20
56.45484949832776
 10
61.90678590664726
 20
56.38795986622074
 10
62.00777075581771
 20
56.32107023411371
 10
62.10758405303521
 20
56.25418060200669
 10
62.206255317457135
 20
56.18729096989967
 10
62.3038128031446
 20
56.12040133779264
 10
62.400283499062425
 20
56.05351170568562
 10
62.4956931290792
 20
55.9866220735786
 10
62.59006615196724
 20
55.91973244147157
 10
62.683425761402574
 20
55.852842809364546
 10
62.775793885964994
 20
55.785953177257525
 10
62.86719118913803
 20
55.7190635451505
 10
62.957637069308916
 20
55.65217391304348
 10
63.04714965976865
 20
55.585284280936456
 10
63.13574583814395
 20
55.51839464882943
 10
63.22344648381812
 20
55.45150501672241
 10
63.31027184030087
 20
55.38461538461539
 10
63.3962378169125
 20
55.31772575250836
 10
63.48135997402214
 20
55.25083612040134
 10
63.56565352304776
 20
55.18394648829432
 10
63.649133326456145
 20
55.11705685618729
 10
63.7318138977629
 20
55.05016722408027
 10
63.81370940153246
 20
54.98327759197325
 10
63.894833653378114
 20
54.91638795986622
 10
63.97520011996193
 20
54.8494983277592
 10
64.05482191899483
 20
54.78260869565218
 10
64.13371181923657
 20
54.71571906354515
 10
64.21188224049571
 20
54.64882943143813
 10
64.28934525362963
 20
54.58193979933111
 10
64.36611258054458
 20
54.51505016722408
 10
64.4421955941956
 20
54.44816053511706
 10
64.51760531858656
 20
54.381270903010034
 10
64.59235242877016
 20
54.31438127090301
 10
64.66644725084792
 20
54.247491638795985
 10
64.73989976197021
 20
54.180602006688964
 10
64.8127195903362
 20
54.11371237458194
 10
64.8849160151939
 20
54.046822742474916
 10
64.95649796684012
 20
53.979933110367895
 10
65.02747402662054
 20
53.91304347826087
 10
65.09785242692963
 20
53.84615384615385
 10
65.16764105121072
 20
53.779264214046826
 10
65.23684743395594
 20
53.7123745819398
 10
65.30547876070624
 20
53.64548494983278
 10
65.3735418680514
 20
53.57859531772576
 10
65.44104534094275
 20
53.51170568561873
 10
65.50799825239504
 20
53.44481605351171
 10
65.57440724686677
 20
53.37792642140468
 10
65.64027885884988
 20
53.31103678929766
 10
65.70561951753783
 20
53.24414715719064
 10
65.77043554682548
 20
53.17725752508361
 10
65.83473316530926
 20
53.11036789297659
 10
65.89851848628703
 20
53.04347826086957
 10
65.96179751775816
 20
52.97658862876254
 10
66.02457616242346
 20
52.90969899665552
 10
66.08686021768528
 20
52.84280936454849
 10
66.1486553756474
 20
52.77591973244147
 10
66.20996722311509
 20
52.709030100334445
 10
66.27080124159514
 20
52.642140468227424
 10
66.33116280729575
 20
52.5752508361204
 10
66.39105719112669
 20
52.508361204013376
 10
66.45048955869916
 20
52.44147157190635
 10
66.50946497032584
 20
52.37458193979933
 10
66.56798838102088
 20
52.30769230769231
 10
66.62606464049996
 20
52.24080267558528
 10
66.68369849318019
 20
52.17391304347826
 10
66.74089457818019
 20
52.10702341137124
 10
66.79765742932005
 20
52.04013377926421
 10
66.85399147512136
 20
51.97324414715719
 10
66.90990103880716
 20
51.90635451505017
 10
66.965390338302
 20
51.83946488294314
 10
67.02046348623189
 20
51.77257525083612
 10
67.07512448992433
 20
51.7056856187291
 10
67.12937725140833
 20
51.63879598662207
 10
67.18322556741431
 20
51.57190635451505
 10
67.23667312937424
 20
51.50501672240803
 10
67.28972352342154
 20
51.438127090301
 10
67.34238023039113
 20
51.37123745819398
 10
67.39464662581938
 20
51.30434782608696
 10
67.44652597994418
 20
51.23745819397993
 10
67.49802145770487
 20
51.17056856187291
 10
67.54913611874227
 20
51.10367892976589
 10
67.59987291739873
 20
51.036789297658856
 10
67.65023478850492
 20
50.969899665551836
 10
67.7002260035158
 20
50.903010033444815
 10
67.74984997059354
 20
50.83612040133779
 10
67.79910955027962
 20
50.76923076923077
 10
67.84800756574913
 20
50.702341137123746
 10
67.89654680281079
 20
50.63545150501672
 10
67.94473000990698
 20
50.5685618729097
 10
67.99255989811368
 20
50.50167224080268
 10
68.04003914114058
 20
50.43478260869565
 10
68.08717037533093
 20
50.36789297658863
 10
68.13395619966163
 20
50.30100334448161
 10
68.18039917574325
 20
50.23411371237458
 10
68.22650182781999
 20
50.16722408026756
 10
68.27226664276964
 20
50.10033444816054
 10
68.31769607010366
 20
50.03344481605351
 10
68.3627925219672
 20
49.96655518394649
 10
68.40755837313893
 20
49.89966555183947
 10
68.45199596103126
 20
49.83277591973244
 10
68.49610758569017
 20
49.76588628762542
 10
68.53989550979531
 20
49.6989966555184
 10
68.58336195865996
 20
49.63210702341137
 10
68.62650912023105
 20
49.56521739130435
 10
68.66933914508911
 20
49.49832775919732
 10
68.71185414644833
 20
49.4314381270903
 10
68.75405620015654
 20
49.364548494983275
 10
68.79594734469521
 20
49.297658862876254
 10
68.83752958117942
 20
49.230769230769226
 10
68.87880487335792
 20
49.163879598662206
 10
68.91977514761305
 20
49.096989966555185
 10
68.96044229296086
 20
49.03010033444816
 10
69.00080816105095
 20
48.96321070234114
 10
69.04087456616664
 20
48.896321070234116
 10
69.08064328522482
 20
48.82943143812709
 10
69.12011605777604
 20
48.76254180602007
 10
69.15929458600449
 20
48.69565217391305
 10
69.19818053472801
 20
48.62876254180602
 10
69.23677553139805
 20
48.561872909699
 10
69.27508116609971
 20
48.49498327759198
 10
69.31309899155173
 20
48.42809364548495
 10
69.35083052310647
 20
48.36120401337793
 10
69.38827723874994
 20
48.29431438127091
 10
69.42544057910179
 20
48.22742474916388
 10
69.46232194741529
 20
48.16053511705686
 10
69.49892270957736
 20
48.09364548494983
 10
69.53524419410856
 20
48.02675585284281
 10
69.57128769216307
 20
47.95986622073579
 10
69.60705445752873
 20
47.89297658862876
 10
69.64254570662698
 20
47.826086956521735
 10
69.67776293134958
 20
47.759197324414714
 10
69.7127076915978
 20
47.692307692307686
 10
69.74738122918531
 20
47.625418060200666
 10
69.78178476344908
 20
47.55852842809364
 10
69.81591949134493
 20
47.49163879598662
 10
69.84978658744753
 20
47.424749163879596
 10
69.88338720395035
 20
47.357859531772576
 10
69.91672247066575
 20
47.29096989966555
 10
69.94979349502489
 20
47.22408026755853
 10
69.98260136207777
 20
47.15719063545151
 10
70.01514713449328
 20
47.09030100334448
 10
70.04743185255904
 20
47.02341137123746
 10
70.07945653418165
 20
46.95652173913043
 10
70.11122217488642
 20
46.88963210702341
 10
70.14272974781757
 20
46.82274247491639
 10
70.17398020373815
 20
46.75585284280936
 10
70.20497447103003
 20
46.68896321070234
 10
70.23571345569391
 20
46.62207357859532
 10
70.26619804134938
 20
46.55518394648829
 10
70.29642908923483
 20
46.48829431438127
 10
70.32640743820747
 20
46.42140468227425
 10
70.35613390474339
 20
46.35451505016722
 10
70.3856092829375
 20
46.2876254180602
 10
70.41483434450353
 20
46.22073578595318
 10
70.44380983877409
 20
46.153846153846146
 10
70.47253649270058
 20
46.086956521739125
 10
70.5010150108533
 20
46.020066889632105
 10
70.52924607542131
 20
45.95317725752508
 10
70.55723034621258
 20
45.886287625418056
 10
70.58496846065387
 20
45.819397993311036
 10
70.61246103379082
 20
45.75250836120401
 10
70.63970865828786
 20
45.68561872909699
 10
70.6667119044283
 20
45.618729096989966
 10
70.69347132011427
 20
45.55183946488294
 10
70.71998743086672
 20
45.48494983277592
 10
70.7462607398255
 20
45.4180602006689
 10
70.77229172774923
 20
45.35117056856187
 10
70.79808085301539
 20
45.28428093645485
 10
70.82362855162033
 20
45.21739130434783
 10
70.84893523310205
 20
45.1505016722408
 10
70.87400123007288
 20
45.08361204013378
 10
70.89882691146752
 20
45.01672240802676
 10
70.92341264143587
 20
44.94983277591973
 10
70.94775875279038
 20
44.88294314381271
 10
70.971865547006
 20
44.81605351170569
 10
70.99573329422023
 20
44.74916387959866
 10
71.01936223323307
 20
44.68227424749164
 10
71.04275257150708
 20
44.61538461538461
 10
71.06590448516734
 20
44.54849498327759
 10
71.08881811900144
 20
44.481605351170565
 10
71.11149358645955
 20
44.414715719063544
 10
71.13393096965429
 20
44.347826086956516
 10
71.15613031936088
 20
44.280936454849495
 10
71.17809165501706
 20
44.214046822742475
 10
71.19981496472303
 20
44.14715719063545
 10
71.22130020524162
 20
44.080267558528426
 10
71.24254730199812
 20
44.013377926421406
 10
71.26355614908037
 20
43.94648829431438
 10
71.28432660923873
 20
43.87959866220736
 10
71.30485851388612
 20
43.812709030100336
 10
71.32515166309794
 20
43.74581939799331
 10
71.34520582561215
 20
43.67892976588629
 10
71.36502073882926
 20
43.61204013377926
 10
71.38459610881225
 20
43.54515050167224
 10
71.40393161028666
 20
43.47826086956522
 10
71.42302681799963
 20
43.41137123745819
 10
71.4418811522374
 20
43.34448160535117
 10
71.4604941542471
 20
43.27759197324415
 10
71.4788653054478
 20
43.21070234113712
 10
71.49699401618118
 20
43.1438127090301
 10
71.51487962571144
 20
43.07692307692308
 10
71.53252140222541
 20
43.01003344481605
 10
71.5499185428324
 20
42.943143812709025
 10
71.56707017356436
 20
42.876254180602004
 10
71.58397534937576
 20
42.809364548494976
 10
71.60063305414367
 20
42.742474916387955
 10
71.6170422006677
 20
42.675585284280935
 10
71.63320163067003
 20
42.60869565217391
 10
71.6491101147954
 20
42.541806020066886
 10
71.66476635261117
 20
42.474916387959865
 10
71.68016897260718
 20
42.40802675585284
 10
71.69531653219589
 20
42.34113712374582
 10
71.71020744975202
 20
42.274247491638796
 10
71.72483985523067
 20
42.20735785953177
 10
71.73921196599825
 20
42.14046822742475
 10
71.75332183971824
 20
42.07357859531773
 10
71.76716734552878
 20
42.0066889632107
 10
71.78074616404271
 20
41.93979933110368
 10
71.79405578734756
 20
41.87290969899666
 10
71.80709351900552
 20
41.80602006688963
 10
71.81985647405347
 20
41.73913043478261
 10
71.83234157900296
 20
41.67224080267559
 10
71.8445455718402
 20
41.60535117056856
 10
71.85646500150831
 20
41.53846153846154
 10
71.86809595714269
 20
41.47157190635452
 10
71.87943424795657
 20
41.40468227424749
 10
71.8904754003774
 20
41.33779264214047
 10
71.90121441221979
 20
41.270903010033436
 10
71.91164575268546
 20
41.204013377926415
 10
71.92176336236328
 20
41.137123745819395
 10
71.93156065322927
 20
41.07023411371237
 10
71.94103049732053
 20
41.003344481605346
 10
71.95016476868565
 20
40.936454849498325
 10
71.9589545000854
 20
40.8695652173913
 10
71.96738943935722
 20
40.80267558528428
 10
71.97545778922304
 20
40.735785953177256
 10
71.98314620728937
 20
40.66889632107023
 10
71.99043944635794
 20
40.60200668896321
 10
71.99731943452073
 20
40.53511705685619
 10
72.00376432281845
 20
40.46822742474916
 10
72.00974748072967
 20
40.40133779264214
 10
72.01523592893388
 20
40.33444816053512
 10
72.02018621117334
 20
40.26755852842809
 10
72.02453871976469
 20
40.20066889632107
 10
72.02820438709546
 20
40.13377926421405
 10
72.03102761484783
 20
40.06688963210702
 10
72.03256803964425
 20
40.0
  0
ENDSEC
  0
SECTION
  2
OBJECTS
  0
DICTIONARY
  5
A
330
0
100
AcDbDictionary
281
1
  3
ACAD_COLOR
350
B
  3
ACAD_GROUP
350
C
  3
ACAD_LAYOUT
350
D
  3
ACAD_MATERIAL
350
E
  3
ACAD_MLEADERSTYLE
350
F
  3
ACAD_MLINESTYLE
350
10
  3
ACAD_PLOTSETTINGS
350
11
  3
ACAD_PLOTSTYLENAME
350
12
  3
ACAD_SCALELIST
350
14
  3
ACAD_TABLESTYLE
350
15
  3
ACAD_VISUALSTYLE
350
16
  3
EZDXF_META
350
2D
  0
DICTIONARY
  5
B
330
A
100
AcDbDictionary
281
1
  0
DICTIONARY
  5
C
330
A
100
AcDbDictionary
281
1
  0
DICTIONARY
  5
D
330
A
100
AcDbDictionary
281
1
  3
Model
350
1A
  3
Layout1
350
1E
  0
DICTIONARY
  5
E
330
A
100
AcDbDictionary
281
1
  3
ByBlock
350
1F
  3
ByLayer
350
20
  3
Global
350
21
  0
DICTIONARY
  5
F
330
A
100
AcDbDictionary
281
1
  3
Standard
350
2C
  0
DICTIONARY
  5
10
330
A
100
AcDbDictionary
281
1
  3
Standard
350
22
  0
DICTIONARY
  5
11
330
A
100
AcDbDictionary
281
1
  0
ACDBDICTIONARYWDFLT
  5
12
330
A
100
AcDbDictionary
281
1
  3
Normal
350
13
100
AcDbDictionaryWithDefault
340
13
  0
ACDBPLACEHOLDER
  5
13
330
12
  0
DICTIONARY
  5
14
330
A
100
AcDbDictionary
281
1
  0
DICTIONARY
  5
15
330
A
100
AcDbDictionary
281
1
  0
DICTIONARY
  5
16
330
A
100
AcDbDictionary
281
1
  0
LAYOUT
  5
1A
330
D
100
AcDbPlotSettings
  1

  4
A3
  6

 40
7.5
 41
20.0
 42
7.5
 43
20.0
 44
420.0
 45
297.0
 46
0.0
 47
0.0
 48
0.0
 49
0.0
140
0.0
141
0.0
142
1.0
143
1.0
 70
1024
 72
1
 73
0
 74
5
  7

 75
16
 76
0
 77
2
 78
300
147
1.0
148
0.0
149
0.0
100
AcDbLayout
  1
Model
 70
1
 71
0
 10
0.0
 20
0.0
 11
420.0
 21
297.0
 12
0.0
 22
0.0
 32
0.0
 14
1e+20
 24
1e+20
 34
1e+20
 15
-1e+20
 25
-1e+20
 35
-1e+20
146
0.0
 13
0.0
 23
0.0
 33
0.0
 16
1.0
 26
0.0
 36
0.0
 17
0.0
 27
1.0
 37
0.0
 76
1
330
17
  0
LAYOUT
  5
1E
330
D
100
AcDbPlotSettings
  1

  4
A3
  6

 40
7.5
 41
20.0
 42
7.5
 43
20.0
 44
420.0
 45
297.0
 46
0.0
 47
0.0
 48
0.0
 49
0.0
140
0.0
141
0.0
142
1.0
143
1.0
 70
0
 72
1
 73
0
 74
5
  7

 75
16
 76
0
 77
2
 78
300
147
1.0
148
0.0
149
0.0
100
AcDbLayout
  1
Layout1
 70
1
 71
1
 10
0.0
 20
0.0
 11
420.0
 21
297.0
 12
0.0
 22
0.0
 32
0.0
 14
1e+20
 24
1e+20
 34
1e+20
 15
-1e+20
 25
-1e+20
 35
-1e+20
146
0.0
 13
0.0
 23
0.0
 33
0.0
 16
1.0
 26
0.0
 36
0.0
 17
0.0
 27
1.0
 37
0.0
 76
1
330
1B
  0
MATERIAL
  5
1F
102
{ACAD_REACTORS
330
E
102
}
330
E
100
AcDbMaterial
  1
ByBlock
  2

 70
0
 40
1.0
 71
1
 41
1.0
 91
-1023410177
 42
1.0
 72
1
  3

 73
1
 74
1
 75
1
 44
0.5
 73
0
 45
1.0
 46
1.0
 77
1
  4

 78
1
 79
1
170
1
 48
1.0
171
1
  6

172
1
173
1
174
1
140
1.0
141
1.0
175
1
  7

176
1
177
1
178
1
143
1.0
179
1
  8

270
1
271
1
272
1
145
1.0
146
1.0
273
1
  9

274
1
275
1
276
1
 42
1.0
 72
1
  3

 73
1
 74
1
 75
1
 94
63
  0
MATERIAL
  5
20
102
{ACAD_REACTORS
330
E
102
}
330
E
100
AcDbMaterial
  1
ByLayer
  2

 70
0
 40
1.0
 71
1
 41
1.0
 91
-1023410177
 42
1.0
 72
1
  3

 73
1
 74
1
 75
1
 44
0.5
 73
0
 45
1.0
 46
1.0
 77
1
  4

 78
1
 79
1
170
1
 48
1.0
171
1
  6

172
1
173
1
174
1
140
1.0
141
1.0
175
1
  7

176
1
177
1
178
1
143
1.0
179
1
  8

270
1
271
1
272
1
145
1.0
146
1.0
273
1
  9

274
1
275
1
276
1
 42
1.0
 72
1
  3

 73
1
 74
1
 75
1
 94
63
  0
MATERIAL
  5
21
102
{ACAD_REACTORS
330
E
102
}
330
E
100
AcDbMaterial
  1
Global
  2

 70
0
 40
1.0
 71
1
 41
1.0
 91
-1023410177
 42
1.0
 72
1
  3

 73
1
 74
1
 75
1
 44
0.5
 73
0
 45
1.0
 46
1.0
 77
1
  4

 78
1
 79
1
170
1
 48
1.0
171
1
  6

172
1
173
1
174
1
140
1.0
141
1.0
175
1
  7

176
1
177
1
178
1
143
1.0
179
1
  8

270
1
271
1
272
1
145
1.0
146
1.0
273
1
  9

274
1
275
1
276
1
 42
1.0
 72
1
  3

 73
1
 74
1
 75
1
 94
63
  0
MLINESTYLE
  5
22
102
{ACAD_REACTORS
330
10
102
}
330
10
100
AcDbMlineStyle
  2
Standard
 70
0
  3

 62
256
 51
90.0
 52
90.0
 71
2
 49
0.5
 62
256
  6
BYLAYER
 49
-0.5
 62
256
  6
BYLAYER
  0
MLEADERSTYLE
  5
2C
102
{ACAD_REACTORS
330
F
102
}
330
F
100
AcDbMLeaderStyle
179
2
170
2
171
1
172
0
 90
2
 40
0.0
 41
0.0
173
1
 91
-1056964608
 92
-2
290
1
 42
2.0
291
1
 43
8.0
  3
Standard
 44
4.0
300

342
29
174
1
175
1
176
0
178
1
 93
-1056964608
 45
4.0
292
0
297
0
 46
4.0
 94
-1056964608
 47
1.0
 49
1.0
140
1.0
294
1
141
0.0
177
0
142
1.0
295
0
296
0
143
3.75
271
0
272
9
273
9
  0
DICTIONARY
  5
2D
330
A
100
AcDbDictionary
280
1
281
1
  3
CREATED_BY_EZDXF
350
2E
  3
WRITTEN_BY_EZDXF
350
32
  0
DICTIONARYVAR
  5
2E
330
2D
100
DictionaryVariables
280
0
  1
1.4.3 @ 2026-02-05T10:46:32.722798+00:00
  0
DICTIONARYVAR
  5
32
330
2D
100
DictionaryVariables
280
0
  1
1.4.3 @ 2026-02-05T10:46:32.727066+00:00
  0
ENDSEC
  0
EOF
