  0
SECTION
  2
HEADER
  9
$ACADVER
  1
AC1024
  9
$ACADMAINTVER
 70
6
  9
$DWGCODEPAGE
  3
ANSI_1252
  9
$LASTSAVEDBY
  1
ezdxf
  9
$INSBASE
 10
0.0
 20
0.0
 30
0.0
  9
$EXTMIN
 10
1e+20
 20
1e+20
 30
1e+20
  9
$EXTMAX
 10
-1e+20
 20
-1e+20
 30
-1e+20
  9
$LIMMIN
 10
0.0
 20
0.0
  9
$LIMMAX
 10
420.0
 20
297.0
  9
$ORTHOMODE
 70
0
  9
$REGENMODE
 70
1
  9
$FILLMODE
 70
1
  9
$QTEXTMODE
 70
0
  9
$MIRRTEXT
 70
1
  9
$LTSCALE
 40
1.0
  9
$ATTMODE
 70
1
  9
$TEXTSIZE
 40
2.5
  9
$TRACEWID
 40
1.0
  9
$TEXTSTYLE
  7
Standard
  9
$CLAYER
  8
0
  9
$CELTYPE
  6
ByLayer
  9
$CECOLOR
 62
256
  9
$CELTSCALE
 40
1.0
  9
$DISPSILH
 70
0
  9
$DIMSCALE
 40
1.0
  9
$DIMASZ
 40
2.5
  9
$DIMEXO
 40
0.625
  9
$DIMDLI
 40
3.75
  9
$DIMRND
 40
0.0
  9
$DIMDLE
 40
0.0
  9
$DIMEXE
 40
1.25
  9
$DIMTP
 40
0.0
  9
$DIMTM
 40
0.0
  9
$DIMTXT
 40
2.5
  9
$DIMCEN
 40
2.5
  9
$DIMTSZ
 40
0.0
  9
$DIMTOL
 70
0
  9
$DIMLIM
 70
0
  9
$DIMTIH
 70
0
  9
$DIMTOH
 70
0
  9
$DIMSE1
 70
0
  9
$DIMSE2
 70
0
  9
$DIMTAD
 70
1
  9
$DIMZIN
 70
8
  9
$DIMBLK
  1

  9
$DIMASO
 70
1
  9
$DIMSHO
 70
1
  9
$DIMPOST
  1

  9
$DIMAPOST
  1

  9
$DIMALT
 70
0
  9
$DIMALTD
 70
3
  9
$DIMALTF
 40
0.03937007874
  9
$DIMLFAC
 40
1.0
  9
$DIMTOFL
 70
1
  9
$DIMTVP
 40
0.0
  9
$DIMTIX
 70
0
  9
$DIMSOXD
 70
0
  9
$DIMSAH
 70
0
  9
$DIMBLK1
  1

  9
$DIMBLK2
  1

  9
$DIMSTYLE
  2
ISO-25
  9
$DIMCLRD
 70
0
  9
$DIMCLRE
 70
0
  9
$DIMCLRT
 70
0
  9
$DIMTFAC
 40
1.0
  9
$DIMGAP
 40
0.625
  9
$DIMJUST
 70
0
  9
$DIMSD1
 70
0
  9
$DIMSD2
 70
0
  9
$DIMTOLJ
 70
0
  9
$DIMTZIN
 70
8
  9
$DIMALTZ
 70
0
  9
$DIMALTTZ
 70
0
  9
$DIMUPT
 70
0
  9
$DIMDEC
 70
2
  9
$DIMTDEC
 70
2
  9
$DIMALTU
 70
2
  9
$DIMALTTD
 70
3
  9
$DIMTXSTY
  7
Standard
  9
$DIMAUNIT
 70
0
  9
$DIMADEC
 70
0
  9
$DIMALTRND
 40
0.0
  9
$DIMAZIN
 70
0
  9
$DIMDSEP
 70
44
  9
$DIMATFIT
 70
3
  9
$DIMFRAC
 70
0
  9
$DIMLDRBLK
  1

  9
$DIMLUNIT
 70
2
  9
$DIMLWD
 70
-2
  9
$DIMLWE
 70
-2
  9
$DIMTMOVE
 70
0
  9
$DIMFXL
 40
1.0
  9
$DIMFXLON
 70
0
  9
$DIMJOGANG
 40
0.785398163397
  9
$DIMTFILL
 70
0
  9
$DIMTFILLCLR
 70
0
  9
$DIMARCSYM
 70
0
  9
$DIMLTYPE
  6

  9
$DIMLTEX1
  6

  9
$DIMLTEX2
  6

  9
$DIMTXTDIRECTION
 70
0
  9
$LUNITS
 70
2
  9
$LUPREC
 70
4
  9
$SKETCHINC
 40
1.0
  9
$FILLETRAD
 40
10.0
  9
$AUNITS
 70
0
  9
$AUPREC
 70
2
  9
$MENU
  1
.
  9
$ELEVATION
 40
0.0
  9
$PELEVATION
 40
0.0
  9
$THICKNESS
 40
0.0
  9
$LIMCHECK
 70
0
  9
$CHAMFERA
 40
0.0
  9
$CHAMFERB
 40
0.0
  9
$CHAMFERC
 40
0.0
  9
$CHAMFERD
 40
0.0
  9
$SKPOLY
 70
0
  9
$TDCREATE
 40
2461055.562349537
  9
$TDUCREATE
 40
2458532.153996898
  9
$TDUPDATE
 40
2461055.562349537
  9
$TDUUPDATE
 40
2458532.1544311
  9
$TDINDWG
 40
0.0
  9
$TDUSRTIMER
 40
0.0
  9
$USRTIMER
 70
1
  9
$ANGBASE
 50
0.0
  9
$ANGDIR
 70
0
  9
$PDMODE
 70
0
  9
$PDSIZE
 40
0.0
  9
$PLINEWID
 40
0.0
  9
$SPLFRAME
 70
0
  9
$SPLINETYPE
 70
6
  9
$SPLINESEGS
 70
8
  9
$HANDSEED
  5
34
  9
$SURFTAB1
 70
6
  9
$SURFTAB2
 70
6
  9
$SURFTYPE
 70
6
  9
$SURFU
 70
6
  9
$SURFV
 70
6
  9
$UCSBASE
  2

  9
$UCSNAME
  2

  9
$UCSORG
 10
0.0
 20
0.0
 30
0.0
  9
$UCSXDIR
 10
1.0
 20
0.0
 30
0.0
  9
$UCSYDIR
 10
0.0
 20
1.0
 30
0.0
  9
$UCSORTHOREF
  2

  9
$UCSORTHOVIEW
 70
0
  9
$UCSORGTOP
 10
0.0
 20
0.0
 30
0.0
  9
$UCSORGBOTTOM
 10
0.0
 20
0.0
 30
0.0
  9
$UCSORGLEFT
 10
0.0
 20
0.0
 30
0.0
  9
$UCSORGRIGHT
 10
0.0
 20
0.0
 30
0.0
  9
$UCSORGFRONT
 10
0.0
 20
0.0
 30
0.0
  9
$UCSORGBACK
 10
0.0
 20
0.0
 30
0.0
  9
$PUCSBASE
  2

  9
$PUCSNAME
  2

  9
$PUCSORG
 10
0.0
 20
0.0
 30
0.0
  9
$PUCSXDIR
 10
1.0
 20
0.0
 30
0.0
  9
$PUCSYDIR
 10
0.0
 20
1.0
 30
0.0
  9
$PUCSORTHOREF
  2

  9
$PUCSORTHOVIEW
 70
0
  9
$PUCSORGTOP
 10
0.0
 20
0.0
 30
0.0
  9
$PUCSORGBOTTOM
 10
0.0
 20
0.0
 30
0.0
  9
$PUCSORGLEFT
 10
0.0
 20
0.0
 30
0.0
  9
$PUCSORGRIGHT
 10
0.0
 20
0.0
 30
0.0
  9
$PUCSORGFRONT
 10
0.0
 20
0.0
 30
0.0
  9
$PUCSORGBACK
 10
0.0
 20
0.0
 30
0.0
  9
$USERI1
 70
0
  9
$USERI2
 70
0
  9
$USERI3
 70
0
  9
$USERI4
 70
0
  9
$USERI5
 70
0
  9
$USERR1
 40
0.0
  9
$USERR2
 40
0.0
  9
$USERR3
 40
0.0
  9
$USERR4
 40
0.0
  9
$USERR5
 40
0.0
  9
$WORLDVIEW
 70
1
  9
$SHADEDGE
 70
3
  9
$SHADEDIF
 70
70
  9
$TILEMODE
 70
1
  9
$MAXACTVP
 70
64
  9
$PINSBASE
 10
0.0
 20
0.0
 30
0.0
  9
$PLIMCHECK
 70
0
  9
$PEXTMIN
 10
1e+20
 20
1e+20
 30
1e+20
  9
$PEXTMAX
 10
-1e+20
 20
-1e+20
 30
-1e+20
  9
$PLIMMIN
 10
0.0
 20
0.0
  9
$PLIMMAX
 10
420.0
 20
297.0
  9
$UNITMODE
 70
0
  9
$VISRETAIN
 70
1
  9
$PLINEGEN
 70
0
  9
$PSLTSCALE
 70
1
  9
$TREEDEPTH
 70
3020
  9
$CMLSTYLE
  2
Standard
  9
$CMLJUST
 70
0
  9
$CMLSCALE
 40
20.0
  9
$PROXYGRAPHICS
 70
1
  9
$MEASUREMENT
 70
1
  9
$CELWEIGHT
370
-1
  9
$ENDCAPS
280
0
  9
$JOINSTYLE
280
0
  9
$LWDISPLAY
290
0
  9
$INSUNITS
 70
6
  9
$HYPERLINKBASE
  1

  9
$STYLESHEET
  1

  9
$XEDIT
290
1
  9
$CEPSNTYPE
380
0
  9
$PSTYLEMODE
290
1
  9
$FINGERPRINTGUID
  2
{84480672-1C68-4C8A-9860-7CCDBAA26592}
  9
$VERSIONGUID
  2
{81411CDE-51BD-43AC-8ECF-74C9050A2584}
  9
$EXTNAMES
290
1
  9
$PSVPSCALE
 40
0.0
  9
$OLESTARTUP
290
0
  9
$SORTENTS
280
127
  9
$INDEXCTL
280
0
  9
$HIDETEXT
280
1
  9
$XCLIPFRAME
280
1
  9
$HALOGAP
280
0
  9
$OBSCOLOR
 70
257
  9
$OBSLTYPE
280
0
  9
$INTERSECTIONDISPLAY
280
0
  9
$INTERSECTIONCOLOR
 70
257
  9
$DIMASSOC
280
2
  9
$PROJECTNAME
  1

  9
$CAMERADISPLAY
290
0
  9
$LENSLENGTH
 40
50.0
  9
$CAMERAHEIGHT
 40
0.0
  9
$STEPSPERSEC
 40
24.0
  9
$STEPSIZE
 40
100.0
  9
$3DDWFPREC
 40
2.0
  9
$PSOLWIDTH
 40
0.005
  9
$PSOLHEIGHT
 40
0.08
  9
$LOFTANG1
 40
1.570796326795
  9
$LOFTANG2
 40
1.570796326795
  9
$LOFTMAG1
 40
0.0
  9
$LOFTMAG2
 40
0.0
  9
$LOFTPARAM
 70
7
  9
$LOFTNORMALS
280
1
  9
$LATITUDE
 40
37.795
  9
$LONGITUDE
 40
-122.394
  9
$NORTHDIRECTION
 40
0.0
  9
$TIMEZONE
 70
-8000
  9
$LIGHTGLYPHDISPLAY
280
1
  9
$TILEMODELIGHTSYNCH
280
1
  9
$CMATERIAL
347
20
  9
$SOLIDHIST
280
0
  9
$SHOWHIST
280
1
  9
$DWFFRAME
280
2
  9
$DGNFRAME
280
2
  9
$REALWORLDSCALE
290
1
  9
$INTERFERECOLOR
 62
256
  9
$CSHADOW
280
0
  9
$SHADOWPLANELOCATION
 40
0.0
  0
ENDSEC
  0
SECTION
  2
CLASSES
  0
CLASS
  1
ACDBDICTIONARYWDFLT
  2
AcDbDictionaryWithDefault
  3
ObjectDBX Classes
 90
0
 91
0
280
0
281
0
  0
CLASS
  1
SUN
  2
AcDbSun
  3
SCENEOE
 90
1153
 91
0
280
0
281
0
  0
CLASS
  1
VISUALSTYLE
  2
AcDbVisualStyle
  3
ObjectDBX Classes
 90
4095
 91
0
280
0
281
0
  0
CLASS
  1
MATERIAL
  2
AcDbMaterial
  3
ObjectDBX Classes
 90
1153
 91
0
280
0
281
0
  0
CLASS
  1
SCALE
  2
AcDbScale
  3
ObjectDBX Classes
 90
1153
 91
0
280
0
281
0
  0
CLASS
  1
TABLESTYLE
  2
AcDbTableStyle
  3
ObjectDBX Classes
 90
4095
 91
0
280
0
281
0
  0
CLASS
  1
MLEADERSTYLE
  2
AcDbMLeaderStyle
  3
ACDB_MLEADERSTYLE_CLASS
 90
4095
 91
0
280
0
281
0
  0
CLASS
  1
DICTIONARYVAR
  2
AcDbDictionaryVar
  3
ObjectDBX Classes
 90
0
 91
0
280
0
281
0
  0
CLASS
  1
CELLSTYLEMAP
  2
AcDbCellStyleMap
  3
ObjectDBX Classes
 90
1152
 91
0
280
0
281
0
  0
CLASS
  1
MENTALRAYRENDERSETTINGS
  2
AcDbMentalRayRenderSettings
  3
SCENEOE
 90
1024
 91
0
280
0
281
0
  0
CLASS
  1
ACDBDETAILVIEWSTYLE
  2
AcDbDetailViewStyle
  3
ObjectDBX Classes
 90
1025
 91
0
280
0
281
0
  0
CLASS
  1
ACDBSECTIONVIEWSTYLE
  2
AcDbSectionViewStyle
  3
ObjectDBX Classes
 90
1025
 91
0
280
0
281
0
  0
CLASS
  1
RASTERVARIABLES
  2
AcDbRasterVariables
  3
ISM
 90
0
 91
0
280
0
281
0
  0
CLASS
  1
ACDBPLACEHOLDER
  2
AcDbPlaceHolder
  3
ObjectDBX Classes
 90
0
 91
0
280
0
281
0
  0
CLASS
  1
LAYOUT
  2
AcDbLayout
  3
ObjectDBX Classes
 90
0
 91
0
280
0
281
0
  0
ENDSEC
  0
SECTION
  2
TABLES
  0
TABLE
  2
VPORT
  5
8
330
0
100
AcDbSymbolTable
 70
1
  0
VPORT
  5
23
330
8
100
AcDbSymbolTableRecord
100
AcDbViewportTableRecord
  2
*Active
 70
0
 10
0.0
 20
0.0
 11
1.0
 21
1.0
 12
0.0
 22
0.0
 13
0.0
 23
0.0
 14
0.5
 24
0.5
 15
0.5
 25
0.5
 16
0.0
 26
0.0
 36
1.0
 17
0.0
 27
0.0
 37
0.0
 40
1000.0
 41
1.34
 42
50.0
 43
0.0
 44
0.0
 50
0.0
 51
0.0
 71
0
 72
1000
 73
1
 74
3
 75
0
 76
0
 77
0
 78
0
281
0
 65
0
146
0.0
  0
ENDTAB
  0
TABLE
  2
LTYPE
  5
2
330
0
100
AcDbSymbolTable
 70
3
  0
LTYPE
  5
24
330
2
100
AcDbSymbolTableRecord
100
AcDbLinetypeTableRecord
  2
ByBlock
 70
0
  3

 72
65
 73
0
 40
0.0
  0
LTYPE
  5
25
330
2
100
AcDbSymbolTableRecord
100
AcDbLinetypeTableRecord
  2
ByLayer
 70
0
  3

 72
65
 73
0
 40
0.0
  0
LTYPE
  5
26
330
2
100
AcDbSymbolTableRecord
100
AcDbLinetypeTableRecord
  2
Continuous
 70
0
  3

 72
65
 73
0
 40
0.0
  0
ENDTAB
  0
TABLE
  2
LAYER
  5
1
330
0
100
AcDbSymbolTable
 70
2
  0
LAYER
  5
27
330
1
100
AcDbSymbolTableRecord
100
AcDbLayerTableRecord
  2
0
 70
0
 62
7
  6
Continuous
370
-3
390
13
347
21
  0
LAYER
  5
28
330
1
100
AcDbSymbolTableRecord
100
AcDbLayerTableRecord
  2
Defpoints
 70
0
 62
7
  6
Continuous
290
0
370
-3
390
13
347
21
  0
ENDTAB
  0
TABLE
  2
STYLE
  5
5
330
0
100
AcDbSymbolTable
 70
1
  0
STYLE
  5
29
330
5
100
AcDbSymbolTableRecord
100
AcDbTextStyleTableRecord
  2
Standard
 70
0
 40
0.0
 41
1.0
 50
0.0
 71
0
 42
2.5
  3
txt
  4

  0
ENDTAB
  0
TABLE
  2
VIEW
  5
7
330
0
100
AcDbSymbolTable
 70
0
  0
ENDTAB
  0
TABLE
  2
UCS
  5
6
330
0
100
AcDbSymbolTable
 70
0
  0
ENDTAB
  0
TABLE
  2
APPID
  5
3
330
0
100
AcDbSymbolTable
 70
3
  0
APPID
  5
2A
330
3
100
AcDbSymbolTableRecord
100
AcDbRegAppTableRecord
  2
ACAD
 70
0
  0
APPID
  5
31
330
3
100
AcDbSymbolTableRecord
100
AcDbRegAppTableRecord
  2
HATCHBACKGROUNDCOLOR
 70
0
  0
APPID
  5
32
330
3
100
AcDbSymbolTableRecord
100
AcDbRegAppTableRecord
  2
EZDXF
 70
0
  0
ENDTAB
  0
TABLE
  2
DIMSTYLE
  5
4
330
0
100
AcDbSymbolTable
 70
1
100
AcDbDimStyleTable
  0
DIMSTYLE
105
2B
330
4
100
AcDbSymbolTableRecord
100
AcDbDimStyleTableRecord
  2
Standard
 70
0
 40
1.0
 41
2.5
 42
0.625
 43
3.75
 44
1.25
 45
0.0
 46
0.0
 47
0.0
 48
0.0
 49
2.5
140
2.5
141
2.5
142
0.0
143
0.03937007874
144
1.0
145
0.0
146
1.0
147
0.625
148
0.0
 69
0
 70
0
 71
0
 72
0
 73
0
 74
0
 75
0
 76
0
 77
1
 78
8
 79
3
170
0
171
3
172
1
173
0
174
0
175
0
176
0
177
0
178
0
179
2
271
2
272
2
273
2
274
3
275
0
276
0
277
2
278
44
279
0
280
0
281
0
282
0
283
0
284
8
285
0
286
0
288
0
289
3
290
0
371
-2
372
-2
  0
ENDTAB
  0
TABLE
  2
BLOCK_RECORD
  5
9
330
0
100
AcDbSymbolTable
 70
2
  0
BLOCK_RECORD
  5
17
330
9
100
AcDbSymbolTableRecord
100
AcDbBlockTableRecord
  2
*Model_Space
340
1A
 70
0
280
1
281
0
  0
BLOCK_RECORD
  5
1B
330
9
100
AcDbSymbolTableRecord
100
AcDbBlockTableRecord
  2
*Paper_Space
340
1E
 70
0
280
1
281
0
  0
ENDTAB
  0
ENDSEC
  0
SECTION
  2
BLOCKS
  0
BLOCK
  5
18
330
17
100
AcDbEntity
  8
0
100
AcDbBlockBegin
  2
*Model_Space
 70
0
 10
0.0
 20
0.0
 30
0.0
  3
*Model_Space
  1

  0
ENDBLK
  5
19
330
17
100
AcDbEntity
  8
0
100
AcDbBlockEnd
  0
BLOCK
  5
1C
330
1B
100
AcDbEntity
  8
0
100
AcDbBlockBegin
  2
*Paper_Space
 70
0
 10
0.0
 20
0.0
 30
0.0
  3
*Paper_Space
  1

  0
ENDBLK
  5
1D
330
1B
100
AcDbEntity
  8
0
100
AcDbBlockEnd
  0
ENDSEC
  0
SECTION
  2
ENTITIES
  0
LWPOLYLINE
  5
2F
330
17
100
AcDbEntity
  8
PROFILE
 62
1
100
AcDbPolyline
 90
600
 70
128
 10
-73.84267321378437
 20
37.5
 10
-73.84107982666796
 20
37.5752508361204
 10
-73.83815858066608
 20
37.65050167224081
 10
-73.83436439094
 20
37.725752508361204
 10
-73.8298579465669
 20
37.80100334448161
 10
-73.82473080621848
 20
37.876254180602004
 10
-73.81904461382574
 20
37.95150501672241
 10
-73.81284382757788
 20
38.02675585284281
 10
-73.80616238020339
 20
38.10200668896321
 10
-73.79902778967801
 20
38.17725752508361
 10
-73.79146221278512
 20
38.252508361204015
 10
-73.78348411087366
 20
38.32775919732442
 10
-73.77510915341036
 20
38.403010033444815
 10
-73.7663511281898
 20
38.47826086956522
 10
-73.757221972405
 20
38.55351170568562
 10
-73.7477319643768
 20
38.62876254180602
 10
-73.73789035829468
 20
38.70401337792642
 10
-73.7277052075207
 20
38.77926421404682
 10
-73.71718389994177
 20
38.85451505016723
 10
-73.70633319427343
 20
38.929765886287626
 10
-73.69515922005976
 20
39.00501672240802
 10
-73.68366747767352
 20
39.080267558528426
 10
-73.67186285346847
 20
39.15551839464883
 10
-73.65975001277423
 20
39.23076923076923
 10
-73.64733309980019
 20
39.30602006688963
 10
-73.6346158827515
 20
39.381270903010034
 10
-73.62160190702463
 20
39.45652173913044
 10
-73.60829449520732
 20
39.531772575250834
 10
-73.59469674707866
 20
39.60702341137124
 10
-73.58081153960907
 20
39.682274247491634
 10
-73.56664152696023
 20
39.757525083612045
 10
-73.55218914048517
 20
39.83277591973244
 10
-73.53745658872822
 20
39.908026755852845
 10
-73.52244587381847
 20
39.98327759197325
 10
-73.50715906556928
 20
40.058528428093645
 10
-73.49159795052591
 20
40.13377926421405
 10
-73.47576413224371
 20
40.209030100334445
 10
-73.45965913130016
 20
40.284280936454856
 10
-73.44328438529485
 20
40.35953177257525
 10
-73.42664124884944
 20
40.43478260869565
 10
-73.40973099360777
 20
40.51003344481605
 10
-73.39255480823574
 20
40.585284280936456
 10
-73.37511379842138
 20
40.66053511705686
 10
-73.35740898687483
 20
40.735785953177256
 10
-73.33944131332834
 20
40.81103678929766
 10
-73.32121163453625
 20
40.88628762541806
 10
-73.30272072427505
 20
40.96153846153846
 10
-73.28396927334332
 20
41.03678929765886
 10
-73.26495788956173
 20
41.11204013377926
 10
-73.2456870987025
 20
41.18729096989967
 10
-73.22615751793928
 20
41.26254180602007
 10
-73.2063696781511
 20
41.33779264214047
 10
-73.18632395188165
 20
41.41304347826087
 10
-73.16602067617086
 20
41.48829431438127
 10
-73.14546015255503
 20
41.563545150501675
 10
-73.12464264706674
 20
41.63879598662207
 10
-73.10356839023487
 20
41.714046822742475
 10
-73.08223757708461
 20
41.78929765886288
 10
-73.06065036713746
 20
41.864548494983275
 10
-73.03880688441122
 20
41.93979933110368
 10
-73.01670721741999
 20
42.01505016722408
 10
-72.99435141917421
 20
42.090301003344486
 10
-72.97173950718056
 20
42.16555183946488
 10
-72.94887146344207
 20
42.240802675585286
 10
-72.92574723445809
 20
42.31605351170568
 10
-72.90236673122422
 20
42.391304347826086
 10
-72.87872982923241
 20
42.46655518394649
 10
-72.8548363684709
 20
42.541806020066886
 10
-72.83068615342425
 20
42.6170568561873
 10
-72.8062789530733
 20
42.69230769230769
 10
-72.7816145008952
 20
42.7675585284281
 10
-72.75669249486343
 20
42.84280936454849
 10
-72.73151259744775
 20
42.91806020066889
 10
-72.70607443561421
 20
42.9933110367893
 10
-72.68037765193905
 20
43.0685618729097
 10
-72.65442191575178
 20
43.1438127090301
 10
-72.62820679630447
 20
43.219063545150505
 10
-72.60173183761219
 20
43.2943143812709
 10
-72.57499656011146
 20
43.369565217391305
 10
-72.54800046066012
 20
43.4448160535117
 10
-72.52074301253744
 20
43.52006688963211
 10
-72.49322366544405
 20
43.59531772575251
 10
-72.46544184550199
 20
43.67056856187291
 10
-72.43739695525466
 20
43.74581939799331
 10
-72.40908837366683
 20
43.82107023411371
 10
-72.38051545612474
 20
43.896321070234116
 10
-72.35167753443591
 20
43.97157190635451
 10
-72.32257391682931
 20
44.046822742474916
 10
-72.29320388795526
 20
44.12207357859532
 10
-72.2635667088855
 20
44.19732441471572
 10
-72.23366161711313
 20
44.27257525083612
 10
-72.20348782655263
 20
44.347826086956516
 10
-72.1730445275399
 20
44.42307692307693
 10
-72.14233088683218
 20
44.49832775919732
 10
-72.11134604760812
 20
44.57357859531773
 10
-72.08008912946777
 20
44.64882943143813
 10
-72.04855922843254
 20
44.72408026755853
 10
-72.01675541694522
 20
44.79933110367893
 10
-71.98467674387001
 20
44.87458193979933
 10
-71.95232223449248
 20
44.94983277591973
 10
-71.91969089051959
 20
45.025083612040135
 10
-71.88678169007969
 20
45.10033444816054
 10
-71.85359358772249
 20
45.175585284280935
 10
-71.82012551441912
 20
45.25083612040134
 10
-71.78637637756206
 20
45.32608695652174
 10
-71.75234506096523
 20
45.40133779264214
 10
-71.71803042486387
 20
45.47658862876254
 10
-71.68343130591465
 20
45.55183946488294
 10
-71.6485465171956
 20
45.62709030100335
 10
-71.61337484820613
 20
45.702341137123746
 10
-71.57791506486708
 20
45.77759197324414
 10
-71.5421658663184
 20
45.85284280936455
 10
-71.50612564042297
 20
45.92809364548495
 10
-71.46979308950318
 20
46.00334448160535
 10
-71.43316696871187
 20
46.07859531772576
 10
-71.39624599727351
 20
46.15384615384615
 10
-71.3590288584842
 20
46.22909698996656
 10
-71.32151419971174
 20
46.30434782608695
 10
-71.28370063239556
 20
46.37959866220736
 10
-71.24558673204676
 20
46.45484949832776
 10
-71.2071710382481
 20
46.530100334448164
 10
-71.16845205465398
 20
46.60535117056856
 10
-71.12942824899046
 20
46.680602006688964
 10
-71.0900980530553
 20
46.75585284280937
 10
-71.05045986271784
 20
46.831103678929765
 10
-71.01051203791913
 20
46.90635451505017
 10
-70.97025290267187
 20
46.981605351170565
 10
-70.92968074506041
 20
47.056856187290975
 10
-70.88879381724075
 20
47.13210702341137
 10
-70.84759033544057
 20
47.20735785953177
 10
-70.8060684799592
 20
47.28260869565218
 10
-70.76422639516758
 20
47.357859531772576
 10
-70.72206218950839
 20
47.43311036789298
 10
-70.67957393549591
 20
47.508361204013376
 10
-70.63675966971607
 20
47.58361204013377
 10
-70.5936173928265
 20
47.65886287625418
 10
-70.55014506955646
 20
47.73411371237458
 10
-70.50634062870688
 20
47.80936454849498
 10
-70.4622019631503
 20
47.88461538461539
 10
-70.417726929831
 20
47.95986622073579
 10
-70.37291334976487
 20
48.03511705685619
 10
-70.32775900803944
 20
48.11036789297658
 10
-70.2822616538139
 20
48.18561872909699
 10
-70.23641900031916
 20
48.26086956521739
 10
-70.1902287248577
 20
48.336120401337794
 10
-70.14368846880372
 20
48.41137123745819
 10
-70.09679583760304
 20
48.4866220735786
 10
-70.04954840077316
 20
48.561872909699
 10
-70.00194369190322
 20
48.637123745819395
 10
-69.95397920865405
 20
48.712374581939805
 10
-69.90565241275807
 20
48.7876254180602
 10
-69.85696073001944
 20
48.862876254180605
 10
-69.8079015503139
 20
48.938127090301
 10
-69.75847222758891
 20
49.0133779264214
 10
-69.70867007986355
 20
49.08862876254181
 10
-69.65849238922857
 20
49.163879598662206
 10
-69.60793640184637
 20
49.23913043478261
 10
-69.556999327951
 20
49.31438127090301
 10
-69.50567814004756
 20
49.38963210702342
 10
-69.45396861176455
 20
49.46488294314381
 10
-69.40186770598902
 20
49.54013377926421
 10
-69.34937257717505
 20
49.61538461538461
 10
-69.29648028290674
 20
49.69063545150502
 10
-69.24318778389842
 20
49.76588628762542
 10
-69.18949194399448
 20
49.84113712374582
 10
-69.13538953016942
 20
49.91638795986623
 10
-69.08087721252788
 20
49.991638795986624
 10
-69.02595156430463
 20
50.06688963210702
 10
-68.97060906186454
 20
50.142140468227424
 10
-68.9148460847026
 20
50.21739130434782
 10
-68.85865891544393
 20
50.29264214046823
 10
-68.80204373984375
 20
50.36789297658863
 10
-68.74499664678744
 20
50.443143812709025
 10
-68.68751362829046
 20
50.518394648829435
 10
-68.62959057949841
 20
50.59364548494983
 10
-68.571223298687
 20
50.668896321070235
 10
-68.51240748726205
 20
50.74414715719064
 10
-68.45313874975955
 20
50.81939799331104
 10
-68.39341259384553
 20
50.89464882943144
 10
-68.33322443031618
 20
50.969899665551836
 10
-68.27256957309785
 20
51.04515050167224
 10
-68.21144323924693
 20
51.12040133779264
 10
-68.14984054895
 20
51.19565217391305
 10
-68.08775652552372
 20
51.27090301003344
 10
-68.02518609541487
 20
51.346153846153854
 10
-67.96212408820035
 20
51.42140468227425
 10
-67.89856523658723
 20
51.49665551839465
 10
-67.83450417641262
 20
51.57190635451505
 10
-67.7699354466438
 20
51.64715719063545
 10
-67.70485348937814
 20
51.72240802675586
 10
-67.63925264984319
 20
51.797658862876254
 10
-67.57312717639653
 20
51.87290969899665
 10
-67.50647122052591
 20
51.94816053511706
 10
-67.43927883684923
 20
52.02341137123746
 10
-67.37154398311445
 20
52.09866220735786
 10
-67.30326052019967
 20
52.17391304347826
 10
-67.23442221211313
 20
52.24916387959866
 10
-67.16502272599315
 20
52.324414715719065
 10
-67.09505550020609
 20
52.39966555183946
 10
-67.02451117575158
 20
52.474916387959865
 10
-66.95338217086918
 20
52.55016722408027
 10
-66.88166183738973
 20
52.62541806020067
 10
-66.80934321192795
 20
52.70066889632107
 10
-66.73641901588232
 20
52.77591973244148
 10
-66.66288165543513
 20
52.85117056856187
 10
-66.5887232215525
 20
52.92642140468227
 10
-66.51393548998433
 20
53.00167224080268
 10
-66.43850992126434
 20
53.07692307692307
 10
-66.36243766071004
 20
53.152173913043484
 10
-66.2857095384228
 20
53.22742474916388
 10
-66.2083160692877
 20
53.30267558528428
 10
-66.1302474529737
 20
53.37792642140469
 10
-66.05149357393357
 20
53.45317725752508
 10
-65.97204400140383
 20
53.52842809364549
 10
-65.89188798940486
 20
53.603678929765884
 10
-65.81101447674081
 20
53.67892976588629
 10
-65.72941208699963
 20
53.75418060200669
 10
-65.64706912855314
 20
53.82943143812709
 10
-65.5639735945569
 20
53.90468227424749
 10
-65.48011316295029
 20
53.979933110367895
 10
-65.39547519645652
 20
54.05518394648829
 10
-65.31004674258256
 20
54.130434782608695
 10
-65.22381453361923
 20
54.2056856187291
 10
-65.13676498664117
 20
54.280936454849495
 10
-65.04888420350674
 20
54.3561872909699
 10
-64.96015797085822
 20
54.4314381270903
 10
-64.87057176012159
 20
54.5066889632107
 10
-64.78011072750671
 20
54.58193979933111
 10
-64.68875971400722
 20
54.65719063545151
 10
-64.59649935659587
 20
54.7324414715719
 10
-64.50330975992918
 20
54.807692307692314
 10
-64.40917494904501
 20
54.8829431438127
 10
-64.31407783380597
 20
54.958193979933114
 10
-64.21800020127235
 20
55.03344481605351
 10
-64.12092271570208
 20
55.108695652173914
 10
-64.02282491855074
 20
55.18394648829432
 10
-63.923685228471605
 20
55.259197324414714
 10
-63.82348094131555
 20
55.33444816053512
 10
-63.72218823013112
 20
55.40969899665552
 10
-63.619782145164535
 20
55.48494983277592
 10
-63.51623661385962
 20
55.56020066889632
 10
-63.41152444085792
 20
55.635451505016725
 10
-63.305617307998574
 20
55.71070234113712
 10
-63.1984857743184
 20
55.785953177257525
 10
-63.09009927605188
 20
55.86120401337793
 10
-62.98042612663113
 20
55.936454849498325
 10
-62.869433516685916
 20
56.011705685618736
 10
-62.75708751404369
 20
56.086956521739125
 10
-62.6433530637295
 20
56.16220735785953
 10
-62.528193987966105
 20
56.23745819397993
 10
-62.411572986173894
 20
56.31270903010033
 10
-62.29344891892257
 20
56.38795986622074
 10
-62.173769851608306
 20
56.46321070234114
 10
-62.052493612837104
 20
56.53846153846154
 10
-61.92957557809809
 20
56.613712374581944
 10
-61.80496678743842
 20
56.68896321070234
 10
-61.67861394546318
 20
56.764214046822744
 10
-61.55045942133552
 20
56.83946488294315
 10
-61.420441248776584
 20
56.914715719063544
 10
-61.28849312606546
 20
56.98996655518395
 10
-61.1545444160393
 20
57.06521739130435
 10
-61.018520146093216
 20
57.14046822742475
 10
-60.88034100818031
 20
57.21571906354515
 10
-60.73992335881172
 20
57.290969899665555
 10
-60.59717921905657
 20
57.36622073578595
 10
-60.45201627454193
 20
57.44147157190636
 10
-60.30433787545298
 20
57.51672240802675
 10
-60.15403686586614
 20
57.591973244147155
 10
-60.00098254869617
 20
57.66722408026756
 10
-59.845058545285156
 20
57.742474916387955
 10
-59.686134030224494
 20
57.817725752508366
 10
-59.52406022124973
 20
57.89297658862876
 10
-59.35867037924045
 20
57.968227424749166
 10
-59.189779808220365
 20
58.04347826086957
 10
-59.01718585535732
 20
58.118729096989966
 10
-58.84066791096317
 20
58.19397993311037
 10
-58.659987408493976
 20
58.26923076923077
 10
-58.474887824549825
 20
58.34448160535117
 10
-58.285086959080104
 20
58.419732441471574
 10
-58.090237288973746
 20
58.49498327759198
 10
-57.88999272287238
 20
58.570234113712374
 10
-57.683941382631886
 20
58.64548494983278
 10
-57.471591923469376
 20
58.720735785953174
 10
-57.25237353396298
 20
58.79598662207358
 10
-57.02563593605214
 20
58.87123745819398
 10
-56.790649385037355
 20
58.94648829431438
 10
-56.54654376690462
 20
59.02173913043478
 10
-56.29228432459746
 20
59.096989966555185
 10
-56.02661635603751
 20
59.17224080267558
 10
-55.74791238105894
 20
59.24749163879599
 10
-55.45417067318775
 20
59.32274247491639
 10
-55.142894608508925
 20
59.39799331103679
 10
-54.81078091688763
 20
59.473244147157196
 10
-54.45313069862355
 20
59.54849498327759
 10
-54.0632745446457
 20
59.623745819397996
 10
-53.631170776729164
 20
59.69899665551839
 10
-53.139499959084105
 20
59.774247491638796
 10
-52.55504841739368
 20
59.8494983277592
 10
-51.79162517711528
 20
59.9247491638796
 10
-50.0
 20
60.0
 10
50.0
 20
60.0
 10
51.79162517711528
 20
59.9247491638796
 10
52.55504841739368
 20
59.8494983277592
 10
53.139499959084105
 20
59.774247491638796
 10
53.631170776729164
 20
59.69899665551839
 10
54.0632745446457
 20
59.623745819397996
 10
54.45313069862355
 20
59.54849498327759
 10
54.81078091688763
 20
59.473244147157196
 10
55.142894608508925
 20
59.39799331103679
 10
55.45417067318775
 20
59.32274247491639
 10
55.74791238105894
 20
59.24749163879599
 10
56.02661635603751
 20
59.17224080267558
 10
56.29228432459746
 20
59.096989966555185
 10
56.54654376690462
 20
59.02173913043478
 10
56.790649385037355
 20
58.94648829431438
 10
57.02563593605214
 20
58.87123745819398
 10
57.25237353396298
 20
58.79598662207358
 10
57.471591923469376
 20
58.720735785953174
 10
57.683941382631886
 20
58.64548494983278
 10
57.88999272287238
 20
58.570234113712374
 10
58.090237288973746
 20
58.49498327759198
 10
58.285086959080104
 20
58.419732441471574
 10
58.474887824549825
 20
58.34448160535117
 10
58.659987408493976
 20
58.26923076923077
 10
58.84066791096317
 20
58.19397993311037
 10
59.01718585535732
 20
58.118729096989966
 10
59.189779808220365
 20
58.04347826086957
 10
59.35867037924045
 20
57.968227424749166
 10
59.52406022124973
 20
57.89297658862876
 10
59.686134030224494
 20
57.817725752508366
 10
59.845058545285156
 20
57.742474916387955
 10
60.00098254869617
 20
57.66722408026756
 10
60.15403686586614
 20
57.591973244147155
 10
60.30433787545298
 20
57.51672240802675
 10
60.45201627454193
 20
57.44147157190636
 10
60.59717921905657
 20
57.36622073578595
 10
60.73992335881172
 20
57.290969899665555
 10
60.88034100818031
 20
57.21571906354515
 10
61.018520146093216
 20
57.14046822742475
 10
61.1545444160393
 20
57.06521739130435
 10
61.28849312606546
 20
56.98996655518395
 10
61.420441248776584
 20
56.914715719063544
 10
61.55045942133552
 20
56.83946488294315
 10
61.67861394546318
 20
56.764214046822744
 10
61.80496678743842
 20
56.68896321070234
 10
61.92957557809809
 20
56.613712374581944
 10
62.052493612837104
 20
56.53846153846154
 10
62.173769851608306
 20
56.46321070234114
 10
62.29344891892257
 20
56.38795986622074
 10
62.411572986173894
 20
56.31270903010033
 10
62.528193987966105
 20
56.23745819397993
 10
62.6433530637295
 20
56.16220735785953
 10
62.75708751404369
 20
56.086956521739125
 10
62.869433516685916
 20
56.011705685618736
 10
62.98042612663113
 20
55.936454849498325
 10
63.09009927605188
 20
55.86120401337793
 10
63.1984857743184
 20
55.785953177257525
 10
63.305617307998574
 20
55.71070234113712
 10
63.41152444085792
 20
55.635451505016725
 10
63.51623661385962
 20
55.56020066889632
 10
63.619782145164535
 20
55.48494983277592
 10
63.72218823013112
 20
55.40969899665552
 10
63.82348094131555
 20
55.33444816053512
 10
63.923685228471605
 20
55.259197324414714
 10
64.02282491855074
 20
55.18394648829432
 10
64.12092271570208
 20
55.108695652173914
 10
64.21800020127235
 20
55.03344481605351
 10
64.31407783380597
 20
54.958193979933114
 10
64.40917494904501
 20
54.8829431438127
 10
64.50330975992918
 20
54.807692307692314
 10
64.59649935659587
 20
54.7324414715719
 10
64.68875971400722
 20
54.65719063545151
 10
64.78011072750671
 20
54.58193979933111
 10
64.87057176012159
 20
54.5066889632107
 10
64.96015797085822
 20
54.4314381270903
 10
65.04888420350674
 20
54.3561872909699
 10
65.13676498664117
 20
54.280936454849495
 10
65.22381453361923
 20
54.2056856187291
 10
65.31004674258256
 20
54.130434782608695
 10
65.39547519645652
 20
54.05518394648829
 10
65.48011316295029
 20
53.979933110367895
 10
65.5639735945569
 20
53.90468227424749
 10
65.64706912855314
 20
53.82943143812709
 10
65.72941208699963
 20
53.75418060200669
 10
65.81101447674081
 20
53.67892976588629
 10
65.89188798940486
 20
53.603678929765884
 10
65.97204400140383
 20
53.52842809364549
 10
66.05149357393358
 20
53.45317725752508
 10
66.1302474529737
 20
53.37792642140469
 10
66.2083160692877
 20
53.30267558528428
 10
66.2857095384228
 20
53.22742474916388
 10
66.36243766071004
 20
53.152173913043484
 10
66.43850992126434
 20
53.07692307692307
 10
66.51393548998433
 20
53.00167224080268
 10
66.5887232215525
 20
52.92642140468227
 10
66.66288165543514
 20
52.85117056856187
 10
66.73641901588232
 20
52.77591973244148
 10
66.80934321192795
 20
52.70066889632107
 10
66.88166183738973
 20
52.62541806020067
 10
66.95338217086918
 20
52.55016722408027
 10
67.02451117575158
 20
52.474916387959865
 10
67.09505550020609
 20
52.39966555183946
 10
67.16502272599315
 20
52.324414715719065
 10
67.23442221211313
 20
52.24916387959866
 10
67.30326052019967
 20
52.17391304347826
 10
67.37154398311445
 20
52.09866220735786
 10
67.43927883684923
 20
52.02341137123746
 10
67.50647122052592
 20
51.94816053511706
 10
67.57312717639653
 20
51.87290969899665
 10
67.63925264984317
 20
51.797658862876254
 10
67.70485348937814
 20
51.72240802675586
 10
67.7699354466438
 20
51.64715719063545
 10
67.83450417641262
 20
51.57190635451505
 10
67.89856523658723
 20
51.49665551839465
 10
67.96212408820035
 20
51.42140468227425
 10
68.02518609541485
 20
51.346153846153854
 10
68.08775652552372
 20
51.27090301003344
 10
68.14984054895
 20
51.19565217391305
 10
68.21144323924693
 20
51.12040133779264
 10
68.27256957309785
 20
51.04515050167224
 10
68.33322443031619
 20
50.969899665551836
 10
68.39341259384553
 20
50.89464882943144
 10
68.45313874975955
 20
50.81939799331104
 10
68.51240748726207
 20
50.74414715719064
 10
68.571223298687
 20
50.668896321070235
 10
68.62959057949841
 20
50.59364548494983
 10
68.68751362829047
 20
50.518394648829435
 10
68.74499664678746
 20
50.443143812709025
 10
68.80204373984375
 20
50.36789297658863
 10
68.85865891544393
 20
50.29264214046823
 10
68.91484608470259
 20
50.21739130434782
 10
68.97060906186454
 20
50.142140468227424
 10
69.02595156430463
 20
50.06688963210702
 10
69.08087721252788
 20
49.991638795986624
 10
69.13538953016942
 20
49.91638795986623
 10
69.18949194399448
 20
49.84113712374582
 10
69.24318778389843
 20
49.76588628762542
 10
69.29648028290674
 20
49.69063545150502
 10
69.34937257717505
 20
49.61538461538461
 10
69.40186770598902
 20
49.54013377926421
 10
69.45396861176455
 20
49.46488294314381
 10
69.50567814004756
 20
49.38963210702342
 10
69.556999327951
 20
49.31438127090301
 10
69.60793640184636
 20
49.23913043478261
 10
69.65849238922857
 20
49.163879598662206
 10
69.70867007986355
 20
49.08862876254181
 10
69.75847222758891
 20
49.0133779264214
 10
69.8079015503139
 20
48.938127090301
 10
69.85696073001944
 20
48.862876254180605
 10
69.90565241275807
 20
48.7876254180602
 10
69.95397920865403
 20
48.712374581939805
 10
70.00194369190322
 20
48.637123745819395
 10
70.04954840077316
 20
48.561872909699
 10
70.09679583760304
 20
48.4866220735786
 10
70.14368846880372
 20
48.41137123745819
 10
70.1902287248577
 20
48.336120401337794
 10
70.23641900031916
 20
48.26086956521739
 10
70.28226165381392
 20
48.18561872909699
 10
70.32775900803944
 20
48.11036789297658
 10
70.37291334976487
 20
48.03511705685619
 10
70.41772692983102
 20
47.95986622073579
 10
70.4622019631503
 20
47.88461538461539
 10
70.50634062870688
 20
47.80936454849498
 10
70.55014506955646
 20
47.73411371237458
 10
70.5936173928265
 20
47.65886287625418
 10
70.63675966971607
 20
47.58361204013377
 10
70.67957393549591
 20
47.508361204013376
 10
70.72206218950839
 20
47.43311036789298
 10
70.76422639516758
 20
47.357859531772576
 10
70.8060684799592
 20
47.28260869565218
 10
70.84759033544057
 20
47.20735785953177
 10
70.88879381724075
 20
47.13210702341137
 10
70.92968074506041
 20
47.056856187290975
 10
70.97025290267187
 20
46.981605351170565
 10
71.01051203791913
 20
46.90635451505017
 10
71.05045986271784
 20
46.831103678929765
 10
71.0900980530553
 20
46.75585284280937
 10
71.12942824899048
 20
46.680602006688964
 10
71.16845205465398
 20
46.60535117056856
 10
71.2071710382481
 20
46.530100334448164
 10
71.24558673204676
 20
46.45484949832776
 10
71.28370063239556
 20
46.37959866220736
 10
71.32151419971174
 20
46.30434782608695
 10
71.3590288584842
 20
46.22909698996656
 10
71.39624599727351
 20
46.15384615384615
 10
71.43316696871187
 20
46.07859531772576
 10
71.46979308950318
 20
46.00334448160535
 10
71.50612564042297
 20
45.92809364548495
 10
71.54216586631841
 20
45.85284280936455
 10
71.57791506486708
 20
45.77759197324414
 10
71.61337484820613
 20
45.702341137123746
 10
71.6485465171956
 20
45.62709030100335
 10
71.68343130591465
 20
45.55183946488294
 10
71.71803042486387
 20
45.47658862876254
 10
71.75234506096524
 20
45.40133779264214
 10
71.78637637756208
 20
45.32608695652174
 10
71.82012551441912
 20
45.25083612040134
 10
71.85359358772249
 20
45.175585284280935
 10
71.88678169007969
 20
45.10033444816054
 10
71.91969089051959
 20
45.025083612040135
 10
71.95232223449248
 20
44.94983277591973
 10
71.98467674387001
 20
44.87458193979933
 10
72.01675541694522
 20
44.79933110367893
 10
72.04855922843254
 20
44.72408026755853
 10
72.08008912946778
 20
44.64882943143813
 10
72.11134604760812
 20
44.57357859531773
 10
72.14233088683218
 20
44.49832775919732
 10
72.1730445275399
 20
44.42307692307693
 10
72.20348782655263
 20
44.347826086956516
 10
72.23366161711313
 20
44.27257525083612
 10
72.26356670888549
 20
44.19732441471572
 10
72.29320388795526
 20
44.12207357859532
 10
72.3225739168293
 20
44.046822742474916
 10
72.35167753443591
 20
43.97157190635451
 10
72.38051545612474
 20
43.896321070234116
 10
72.40908837366683
 20
43.82107023411371
 10
72.43739695525466
 20
43.74581939799331
 10
72.46544184550199
 20
43.67056856187291
 10
72.49322366544405
 20
43.59531772575251
 10
72.52074301253744
 20
43.52006688963211
 10
72.54800046066012
 20
43.4448160535117
 10
72.57499656011146
 20
43.369565217391305
 10
72.60173183761219
 20
43.2943143812709
 10
72.62820679630447
 20
43.219063545150505
 10
72.65442191575178
 20
43.1438127090301
 10
72.68037765193905
 20
43.0685618729097
 10
72.70607443561421
 20
42.9933110367893
 10
72.73151259744775
 20
42.91806020066889
 10
72.75669249486343
 20
42.84280936454849
 10
72.7816145008952
 20
42.7675585284281
 10
72.8062789530733
 20
42.69230769230769
 10
72.83068615342425
 20
42.6170568561873
 10
72.8548363684709
 20
42.541806020066886
 10
72.87872982923241
 20
42.46655518394649
 10
72.90236673122422
 20
42.391304347826086
 10
72.92574723445809
 20
42.31605351170568
 10
72.94887146344207
 20
42.240802675585286
 10
72.97173950718056
 20
42.16555183946488
 10
72.99435141917421
 20
42.090301003344486
 10
73.01670721741999
 20
42.01505016722408
 10
73.03880688441123
 20
41.93979933110368
 10
73.06065036713746
 20
41.864548494983275
 10
73.08223757708461
 20
41.78929765886288
 10
73.10356839023487
 20
41.714046822742475
 10
73.12464264706674
 20
41.63879598662207
 10
73.14546015255503
 20
41.563545150501675
 10
73.16602067617086
 20
41.48829431438127
 10
73.18632395188165
 20
41.41304347826087
 10
73.2063696781511
 20
41.33779264214047
 10
73.22615751793928
 20
41.26254180602007
 10
73.24568709870249
 20
41.18729096989967
 10
73.26495788956173
 20
41.11204013377926
 10
73.28396927334332
 20
41.03678929765886
 10
73.30272072427505
 20
40.96153846153846
 10
73.32121163453624
 20
40.88628762541806
 10
73.33944131332834
 20
40.81103678929766
 10
73.35740898687483
 20
40.735785953177256
 10
73.37511379842138
 20
40.66053511705686
 10
73.39255480823573
 20
40.585284280936456
 10
73.40973099360777
 20
40.51003344481605
 10
73.42664124884944
 20
40.43478260869565
 10
73.44328438529485
 20
40.35953177257525
 10
73.45965913130016
 20
40.284280936454856
 10
73.47576413224371
 20
40.209030100334445
 10
73.49159795052591
 20
40.13377926421405
 10
73.50715906556928
 20
40.058528428093645
 10
73.52244587381847
 20
39.98327759197325
 10
73.53745658872822
 20
39.908026755852845
 10
73.55218914048517
 20
39.83277591973244
 10
73.56664152696023
 20
39.757525083612045
 10
73.58081153960907
 20
39.682274247491634
 10
73.59469674707867
 20
39.60702341137124
 10
73.6082944952073
 20
39.531772575250834
 10
73.62160190702463
 20
39.45652173913044
 10
73.6346158827515
 20
39.381270903010034
 10
73.64733309980019
 20
39.30602006688963
 10
73.65975001277423
 20
39.23076923076923
 10
73.67186285346847
 20
39.15551839464883
 10
73.68366747767352
 20
39.080267558528426
 10
73.69515922005976
 20
39.00501672240802
 10
73.70633319427343
 20
38.929765886287626
 10
73.71718389994177
 20
38.85451505016723
 10
73.7277052075207
 20
38.77926421404682
 10
73.73789035829468
 20
38.70401337792642
 10
73.7477319643768
 20
38.62876254180602
 10
73.757221972405
 20
38.55351170568562
 10
73.7663511281898
 20
38.47826086956522
 10
73.77510915341036
 20
38.403010033444815
 10
73.78348411087364
 20
38.32775919732442
 10
73.79146221278512
 20
38.252508361204015
 10
73.79902778967801
 20
38.17725752508361
 10
73.80616238020339
 20
38.10200668896321
 10
73.81284382757786
 20
38.02675585284281
 10
73.81904461382574
 20
37.95150501672241
 10
73.82473080621848
 20
37.876254180602004
 10
73.8298579465669
 20
37.80100334448161
 10
73.83436439094
 20
37.725752508361204
 10
73.83815858066609
 20
37.65050167224081
 10
73.84107982666796
 20
37.5752508361204
 10
73.84267321378437
 20
37.5
  0
LINE
  5
30
330
17
100
AcDbEntity
  8
0
100
AcDbLine
 10
-73.84267321378437
 20
0.0
 30
0.0
 11
73.84267321378437
 21
0.0
 31
0.0
  0
ENDSEC
  0
SECTION
  2
OBJECTS
  0
DICTIONARY
  5
A
330
0
100
AcDbDictionary
281
1
  3
ACAD_COLOR
350
B
  3
ACAD_GROUP
350
C
  3
ACAD_LAYOUT
350
D
  3
ACAD_MATERIAL
350
E
  3
ACAD_MLEADERSTYLE
350
F
  3
ACAD_MLINESTYLE
350
10
  3
ACAD_PLOTSETTINGS
350
11
  3
ACAD_PLOTSTYLENAME
350
12
  3
ACAD_SCALELIST
350
14
  3
ACAD_TABLESTYLE
350
15
  3
ACAD_VISUALSTYLE
350
16
  3
EZDXF_META
350
2D
  0
DICTIONARY
  5
B
330
A
100
AcDbDictionary
281
1
  0
DICTIONARY
  5
C
330
A
100
AcDbDictionary
281
1
  0
DICTIONARY
  5
D
330
A
100
AcDbDictionary
281
1
  3
Model
350
1A
  3
Layout1
350
1E
  0
DICTIONARY
  5
E
330
A
100
AcDbDictionary
281
1
  3
ByBlock
350
1F
  3
ByLayer
350
20
  3
Global
350
21
  0
DICTIONARY
  5
F
330
A
100
AcDbDictionary
281
1
  3
Standard
350
2C
  0
DICTIONARY
  5
10
330
A
100
AcDbDictionary
281
1
  3
Standard
350
22
  0
DICTIONARY
  5
11
330
A
100
AcDbDictionary
281
1
  0
ACDBDICTIONARYWDFLT
  5
12
330
A
100
AcDbDictionary
281
1
  3
Normal
350
13
100
AcDbDictionaryWithDefault
340
13
  0
ACDBPLACEHOLDER
  5
13
330
12
  0
DICTIONARY
  5
14
330
A
100
AcDbDictionary
281
1
  0
DICTIONARY
  5
15
330
A
100
AcDbDictionary
281
1
  0
DICTIONARY
  5
16
330
A
100
AcDbDictionary
281
1
  0
LAYOUT
  5
1A
330
D
100
AcDbPlotSettings
  1

  4
A3
  6

 40
7.5
 41
20.0
 42
7.5
 43
20.0
 44
420.0
 45
297.0
 46
0.0
 47
0.0
 48
0.0
 49
0.0
140
0.0
141
0.0
142
1.0
143
1.0
 70
1024
 72
1
 73
0
 74
5
  7

 75
16
 76
0
 77
2
 78
300
147
1.0
148
0.0
149
0.0
100
AcDbLayout
  1
Model
 70
1
 71
0
 10
0.0
 20
0.0
 11
420.0
 21
297.0
 12
0.0
 22
0.0
 32
0.0
 14
1e+20
 24
1e+20
 34
1e+20
 15
-1e+20
 25
-1e+20
 35
-1e+20
146
0.0
 13
0.0
 23
0.0
 33
0.0
 16
1.0
 26
0.0
 36
0.0
 17
0.0
 27
1.0
 37
0.0
 76
1
330
17
  0
LAYOUT
  5
1E
330
D
100
AcDbPlotSettings
  1

  4
A3
  6

 40
7.5
 41
20.0
 42
7.5
 43
20.0
 44
420.0
 45
297.0
 46
0.0
 47
0.0
 48
0.0
 49
0.0
140
0.0
141
0.0
142
1.0
143
1.0
 70
0
 72
1
 73
0
 74
5
  7

 75
16
 76
0
 77
2
 78
300
147
1.0
148
0.0
149
0.0
100
AcDbLayout
  1
Layout1
 70
1
 71
1
 10
0.0
 20
0.0
 11
420.0
 21
297.0
 12
0.0
 22
0.0
 32
0.0
 14
1e+20
 24
1e+20
 34
1e+20
 15
-1e+20
 25
-1e+20
 35
-1e+20
146
0.0
 13
0.0
 23
0.0
 33
0.0
 16
1.0
 26
0.0
 36
0.0
 17
0.0
 27
1.0
 37
0.0
 76
1
330
1B
  0
MATERIAL
  5
1F
102
{ACAD_REACTORS
330
E
102
}
330
E
100
AcDbMaterial
  1
ByBlock
  2

 70
0
 40
1.0
 71
1
 41
1.0
 91
-1023410177
 42
1.0
 72
1
  3

 73
1
 74
1
 75
1
 44
0.5
 73
0
 45
1.0
 46
1.0
 77
1
  4

 78
1
 79
1
170
1
 48
1.0
171
1
  6

172
1
173
1
174
1
140
1.0
141
1.0
175
1
  7

176
1
177
1
178
1
143
1.0
179
1
  8

270
1
271
1
272
1
145
1.0
146
1.0
273
1
  9

274
1
275
1
276
1
 42
1.0
 72
1
  3

 73
1
 74
1
 75
1
 94
63
  0
MATERIAL
  5
20
102
{ACAD_REACTORS
330
E
102
}
330
E
100
AcDbMaterial
  1
ByLayer
  2

 70
0
 40
1.0
 71
1
 41
1.0
 91
-1023410177
 42
1.0
 72
1
  3

 73
1
 74
1
 75
1
 44
0.5
 73
0
 45
1.0
 46
1.0
 77
1
  4

 78
1
 79
1
170
1
 48
1.0
171
1
  6

172
1
173
1
174
1
140
1.0
141
1.0
175
1
  7

176
1
177
1
178
1
143
1.0
179
1
  8

270
1
271
1
272
1
145
1.0
146
1.0
273
1
  9

274
1
275
1
276
1
 42
1.0
 72
1
  3

 73
1
 74
1
 75
1
 94
63
  0
MATERIAL
  5
21
102
{ACAD_REACTORS
330
E
102
}
330
E
100
AcDbMaterial
  1
Global
  2

 70
0
 40
1.0
 71
1
 41
1.0
 91
-1023410177
 42
1.0
 72
1
  3

 73
1
 74
1
 75
1
 44
0.5
 73
0
 45
1.0
 46
1.0
 77
1
  4

 78
1
 79
1
170
1
 48
1.0
171
1
  6

172
1
173
1
174
1
140
1.0
141
1.0
175
1
  7

176
1
177
1
178
1
143
1.0
179
1
  8

270
1
271
1
272
1
145
1.0
146
1.0
273
1
  9

274
1
275
1
276
1
 42
1.0
 72
1
  3

 73
1
 74
1
 75
1
 94
63
  0
MLINESTYLE
  5
22
102
{ACAD_REACTORS
330
10
102
}
330
10
100
AcDbMlineStyle
  2
Standard
 70
0
  3

 62
256
 51
90.0
 52
90.0
 71
2
 49
0.5
 62
256
  6
BYLAYER
 49
-0.5
 62
256
  6
BYLAYER
  0
MLEADERSTYLE
  5
2C
102
{ACAD_REACTORS
330
F
102
}
330
F
100
AcDbMLeaderStyle
179
2
170
2
171
1
172
0
 90
2
 40
0.0
 41
0.0
173
1
 91
-1056964608
 92
-2
290
1
 42
2.0
291
1
 43
8.0
  3
Standard
 44
4.0
300

342
29
174
1
175
1
176
0
178
1
 93
-1056964608
 45
4.0
292
0
297
0
 46
4.0
 94
-1056964608
 47
1.0
 49
1.0
140
1.0
294
1
141
0.0
177
0
142
1.0
295
0
296
0
143
3.75
271
0
272
9
273
9
  0
DICTIONARY
  5
2D
330
A
100
AcDbDictionary
280
1
281
1
  3
CREATED_BY_EZDXF
350
2E
  3
WRITTEN_BY_EZDXF
350
33
  0
DICTIONARYVAR
  5
2E
330
2D
100
DictionaryVariables
280
0
  1
1.4.3 @ 2026-01-14T12:29:47.324538+00:00
  0
DICTIONARYVAR
  5
33
330
2D
100
DictionaryVariables
280
0
  1
1.4.3 @ 2026-01-14T12:29:47.328573+00:00
  0
ENDSEC
  0
EOF
