  0
SECTION
  2
HEADER
  9
$ACADVER
  1
AC1024
  9
$ACADMAINTVER
 70
6
  9
$DWGCODEPAGE
  3
ANSI_1252
  9
$LASTSAVEDBY
  1
ezdxf
  9
$INSBASE
 10
0.0
 20
0.0
 30
0.0
  9
$EXTMIN
 10
1e+20
 20
1e+20
 30
1e+20
  9
$EXTMAX
 10
-1e+20
 20
-1e+20
 30
-1e+20
  9
$LIMMIN
 10
0.0
 20
0.0
  9
$LIMMAX
 10
420.0
 20
297.0
  9
$ORTHOMODE
 70
0
  9
$REGENMODE
 70
1
  9
$FILLMODE
 70
1
  9
$QTEXTMODE
 70
0
  9
$MIRRTEXT
 70
1
  9
$LTSCALE
 40
1.0
  9
$ATTMODE
 70
1
  9
$TEXTSIZE
 40
2.5
  9
$TRACEWID
 40
1.0
  9
$TEXTSTYLE
  7
Standard
  9
$CLAYER
  8
0
  9
$CELTYPE
  6
ByLayer
  9
$CECOLOR
 62
256
  9
$CELTSCALE
 40
1.0
  9
$DISPSILH
 70
0
  9
$DIMSCALE
 40
1.0
  9
$DIMASZ
 40
2.5
  9
$DIMEXO
 40
0.625
  9
$DIMDLI
 40
3.75
  9
$DIMRND
 40
0.0
  9
$DIMDLE
 40
0.0
  9
$DIMEXE
 40
1.25
  9
$DIMTP
 40
0.0
  9
$DIMTM
 40
0.0
  9
$DIMTXT
 40
2.5
  9
$DIMCEN
 40
2.5
  9
$DIMTSZ
 40
0.0
  9
$DIMTOL
 70
0
  9
$DIMLIM
 70
0
  9
$DIMTIH
 70
0
  9
$DIMTOH
 70
0
  9
$DIMSE1
 70
0
  9
$DIMSE2
 70
0
  9
$DIMTAD
 70
1
  9
$DIMZIN
 70
8
  9
$DIMBLK
  1

  9
$DIMASO
 70
1
  9
$DIMSHO
 70
1
  9
$DIMPOST
  1

  9
$DIMAPOST
  1

  9
$DIMALT
 70
0
  9
$DIMALTD
 70
3
  9
$DIMALTF
 40
0.03937007874
  9
$DIMLFAC
 40
1.0
  9
$DIMTOFL
 70
1
  9
$DIMTVP
 40
0.0
  9
$DIMTIX
 70
0
  9
$DIMSOXD
 70
0
  9
$DIMSAH
 70
0
  9
$DIMBLK1
  1

  9
$DIMBLK2
  1

  9
$DIMSTYLE
  2
ISO-25
  9
$DIMCLRD
 70
0
  9
$DIMCLRE
 70
0
  9
$DIMCLRT
 70
0
  9
$DIMTFAC
 40
1.0
  9
$DIMGAP
 40
0.625
  9
$DIMJUST
 70
0
  9
$DIMSD1
 70
0
  9
$DIMSD2
 70
0
  9
$DIMTOLJ
 70
0
  9
$DIMTZIN
 70
8
  9
$DIMALTZ
 70
0
  9
$DIMALTTZ
 70
0
  9
$DIMUPT
 70
0
  9
$DIMDEC
 70
2
  9
$DIMTDEC
 70
2
  9
$DIMALTU
 70
2
  9
$DIMALTTD
 70
3
  9
$DIMTXSTY
  7
Standard
  9
$DIMAUNIT
 70
0
  9
$DIMADEC
 70
0
  9
$DIMALTRND
 40
0.0
  9
$DIMAZIN
 70
0
  9
$DIMDSEP
 70
44
  9
$DIMATFIT
 70
3
  9
$DIMFRAC
 70
0
  9
$DIMLDRBLK
  1

  9
$DIMLUNIT
 70
2
  9
$DIMLWD
 70
-2
  9
$DIMLWE
 70
-2
  9
$DIMTMOVE
 70
0
  9
$DIMFXL
 40
1.0
  9
$DIMFXLON
 70
0
  9
$DIMJOGANG
 40
0.785398163397
  9
$DIMTFILL
 70
0
  9
$DIMTFILLCLR
 70
0
  9
$DIMARCSYM
 70
0
  9
$DIMLTYPE
  6

  9
$DIMLTEX1
  6

  9
$DIMLTEX2
  6

  9
$DIMTXTDIRECTION
 70
0
  9
$LUNITS
 70
2
  9
$LUPREC
 70
4
  9
$SKETCHINC
 40
1.0
  9
$FILLETRAD
 40
10.0
  9
$AUNITS
 70
0
  9
$AUPREC
 70
2
  9
$MENU
  1
.
  9
$ELEVATION
 40
0.0
  9
$PELEVATION
 40
0.0
  9
$THICKNESS
 40
0.0
  9
$LIMCHECK
 70
0
  9
$CHAMFERA
 40
0.0
  9
$CHAMFERB
 40
0.0
  9
$CHAMFERC
 40
0.0
  9
$CHAMFERD
 40
0.0
  9
$SKPOLY
 70
0
  9
$TDCREATE
 40
2461020.5652777776
  9
$TDUCREATE
 40
2458532.153996898
  9
$TDUPDATE
 40
2461020.5652777776
  9
$TDUUPDATE
 40
2458532.1544311
  9
$TDINDWG
 40
0.0
  9
$TDUSRTIMER
 40
0.0
  9
$USRTIMER
 70
1
  9
$ANGBASE
 50
0.0
  9
$ANGDIR
 70
0
  9
$PDMODE
 70
0
  9
$PDSIZE
 40
0.0
  9
$PLINEWID
 40
0.0
  9
$SPLFRAME
 70
0
  9
$SPLINETYPE
 70
6
  9
$SPLINESEGS
 70
8
  9
$HANDSEED
  5
33
  9
$SURFTAB1
 70
6
  9
$SURFTAB2
 70
6
  9
$SURFTYPE
 70
6
  9
$SURFU
 70
6
  9
$SURFV
 70
6
  9
$UCSBASE
  2

  9
$UCSNAME
  2

  9
$UCSORG
 10
0.0
 20
0.0
 30
0.0
  9
$UCSXDIR
 10
1.0
 20
0.0
 30
0.0
  9
$UCSYDIR
 10
0.0
 20
1.0
 30
0.0
  9
$UCSORTHOREF
  2

  9
$UCSORTHOVIEW
 70
0
  9
$UCSORGTOP
 10
0.0
 20
0.0
 30
0.0
  9
$UCSORGBOTTOM
 10
0.0
 20
0.0
 30
0.0
  9
$UCSORGLEFT
 10
0.0
 20
0.0
 30
0.0
  9
$UCSORGRIGHT
 10
0.0
 20
0.0
 30
0.0
  9
$UCSORGFRONT
 10
0.0
 20
0.0
 30
0.0
  9
$UCSORGBACK
 10
0.0
 20
0.0
 30
0.0
  9
$PUCSBASE
  2

  9
$PUCSNAME
  2

  9
$PUCSORG
 10
0.0
 20
0.0
 30
0.0
  9
$PUCSXDIR
 10
1.0
 20
0.0
 30
0.0
  9
$PUCSYDIR
 10
0.0
 20
1.0
 30
0.0
  9
$PUCSORTHOREF
  2

  9
$PUCSORTHOVIEW
 70
0
  9
$PUCSORGTOP
 10
0.0
 20
0.0
 30
0.0
  9
$PUCSORGBOTTOM
 10
0.0
 20
0.0
 30
0.0
  9
$PUCSORGLEFT
 10
0.0
 20
0.0
 30
0.0
  9
$PUCSORGRIGHT
 10
0.0
 20
0.0
 30
0.0
  9
$PUCSORGFRONT
 10
0.0
 20
0.0
 30
0.0
  9
$PUCSORGBACK
 10
0.0
 20
0.0
 30
0.0
  9
$USERI1
 70
0
  9
$USERI2
 70
0
  9
$USERI3
 70
0
  9
$USERI4
 70
0
  9
$USERI5
 70
0
  9
$USERR1
 40
0.0
  9
$USERR2
 40
0.0
  9
$USERR3
 40
0.0
  9
$USERR4
 40
0.0
  9
$USERR5
 40
0.0
  9
$WORLDVIEW
 70
1
  9
$SHADEDGE
 70
3
  9
$SHADEDIF
 70
70
  9
$TILEMODE
 70
1
  9
$MAXACTVP
 70
64
  9
$PINSBASE
 10
0.0
 20
0.0
 30
0.0
  9
$PLIMCHECK
 70
0
  9
$PEXTMIN
 10
1e+20
 20
1e+20
 30
1e+20
  9
$PEXTMAX
 10
-1e+20
 20
-1e+20
 30
-1e+20
  9
$PLIMMIN
 10
0.0
 20
0.0
  9
$PLIMMAX
 10
420.0
 20
297.0
  9
$UNITMODE
 70
0
  9
$VISRETAIN
 70
1
  9
$PLINEGEN
 70
0
  9
$PSLTSCALE
 70
1
  9
$TREEDEPTH
 70
3020
  9
$CMLSTYLE
  2
Standard
  9
$CMLJUST
 70
0
  9
$CMLSCALE
 40
20.0
  9
$PROXYGRAPHICS
 70
1
  9
$MEASUREMENT
 70
1
  9
$CELWEIGHT
370
-1
  9
$ENDCAPS
280
0
  9
$JOINSTYLE
280
0
  9
$LWDISPLAY
290
0
  9
$INSUNITS
 70
6
  9
$HYPERLINKBASE
  1

  9
$STYLESHEET
  1

  9
$XEDIT
290
1
  9
$CEPSNTYPE
380
0
  9
$PSTYLEMODE
290
1
  9
$FINGERPRINTGUID
  2
{0D918E05-3358-4BA5-A093-B2F371D58A87}
  9
$VERSIONGUID
  2
{EAD6B647-297B-4871-A59E-AA5DF80AB27F}
  9
$EXTNAMES
290
1
  9
$PSVPSCALE
 40
0.0
  9
$OLESTARTUP
290
0
  9
$SORTENTS
280
127
  9
$INDEXCTL
280
0
  9
$HIDETEXT
280
1
  9
$XCLIPFRAME
280
1
  9
$HALOGAP
280
0
  9
$OBSCOLOR
 70
257
  9
$OBSLTYPE
280
0
  9
$INTERSECTIONDISPLAY
280
0
  9
$INTERSECTIONCOLOR
 70
257
  9
$DIMASSOC
280
2
  9
$PROJECTNAME
  1

  9
$CAMERADISPLAY
290
0
  9
$LENSLENGTH
 40
50.0
  9
$CAMERAHEIGHT
 40
0.0
  9
$STEPSPERSEC
 40
24.0
  9
$STEPSIZE
 40
100.0
  9
$3DDWFPREC
 40
2.0
  9
$PSOLWIDTH
 40
0.005
  9
$PSOLHEIGHT
 40
0.08
  9
$LOFTANG1
 40
1.570796326795
  9
$LOFTANG2
 40
1.570796326795
  9
$LOFTMAG1
 40
0.0
  9
$LOFTMAG2
 40
0.0
  9
$LOFTPARAM
 70
7
  9
$LOFTNORMALS
280
1
  9
$LATITUDE
 40
37.795
  9
$LONGITUDE
 40
-122.394
  9
$NORTHDIRECTION
 40
0.0
  9
$TIMEZONE
 70
-8000
  9
$LIGHTGLYPHDISPLAY
280
1
  9
$TILEMODELIGHTSYNCH
280
1
  9
$CMATERIAL
347
20
  9
$SOLIDHIST
280
0
  9
$SHOWHIST
280
1
  9
$DWFFRAME
280
2
  9
$DGNFRAME
280
2
  9
$REALWORLDSCALE
290
1
  9
$INTERFERECOLOR
 62
256
  9
$CSHADOW
280
0
  9
$SHADOWPLANELOCATION
 40
0.0
  0
ENDSEC
  0
SECTION
  2
CLASSES
  0
CLASS
  1
ACDBDICTIONARYWDFLT
  2
AcDbDictionaryWithDefault
  3
ObjectDBX Classes
 90
0
 91
0
280
0
281
0
  0
CLASS
  1
SUN
  2
AcDbSun
  3
SCENEOE
 90
1153
 91
0
280
0
281
0
  0
CLASS
  1
VISUALSTYLE
  2
AcDbVisualStyle
  3
ObjectDBX Classes
 90
4095
 91
0
280
0
281
0
  0
CLASS
  1
MATERIAL
  2
AcDbMaterial
  3
ObjectDBX Classes
 90
1153
 91
0
280
0
281
0
  0
CLASS
  1
SCALE
  2
AcDbScale
  3
ObjectDBX Classes
 90
1153
 91
0
280
0
281
0
  0
CLASS
  1
TABLESTYLE
  2
AcDbTableStyle
  3
ObjectDBX Classes
 90
4095
 91
0
280
0
281
0
  0
CLASS
  1
MLEADERSTYLE
  2
AcDbMLeaderStyle
  3
ACDB_MLEADERSTYLE_CLASS
 90
4095
 91
0
280
0
281
0
  0
CLASS
  1
DICTIONARYVAR
  2
AcDbDictionaryVar
  3
ObjectDBX Classes
 90
0
 91
0
280
0
281
0
  0
CLASS
  1
CELLSTYLEMAP
  2
AcDbCellStyleMap
  3
ObjectDBX Classes
 90
1152
 91
0
280
0
281
0
  0
CLASS
  1
MENTALRAYRENDERSETTINGS
  2
AcDbMentalRayRenderSettings
  3
SCENEOE
 90
1024
 91
0
280
0
281
0
  0
CLASS
  1
ACDBDETAILVIEWSTYLE
  2
AcDbDetailViewStyle
  3
ObjectDBX Classes
 90
1025
 91
0
280
0
281
0
  0
CLASS
  1
ACDBSECTIONVIEWSTYLE
  2
AcDbSectionViewStyle
  3
ObjectDBX Classes
 90
1025
 91
0
280
0
281
0
  0
CLASS
  1
RASTERVARIABLES
  2
AcDbRasterVariables
  3
ISM
 90
0
 91
0
280
0
281
0
  0
CLASS
  1
ACDBPLACEHOLDER
  2
AcDbPlaceHolder
  3
ObjectDBX Classes
 90
0
 91
0
280
0
281
0
  0
CLASS
  1
LAYOUT
  2
AcDbLayout
  3
ObjectDBX Classes
 90
0
 91
0
280
0
281
0
  0
ENDSEC
  0
SECTION
  2
TABLES
  0
TABLE
  2
VPORT
  5
8
330
0
100
AcDbSymbolTable
 70
1
  0
VPORT
  5
23
330
8
100
AcDbSymbolTableRecord
100
AcDbViewportTableRecord
  2
*Active
 70
0
 10
0.0
 20
0.0
 11
1.0
 21
1.0
 12
0.0
 22
0.0
 13
0.0
 23
0.0
 14
0.5
 24
0.5
 15
0.5
 25
0.5
 16
0.0
 26
0.0
 36
1.0
 17
0.0
 27
0.0
 37
0.0
 40
1000.0
 41
1.34
 42
50.0
 43
0.0
 44
0.0
 50
0.0
 51
0.0
 71
0
 72
1000
 73
1
 74
3
 75
0
 76
0
 77
0
 78
0
281
0
 65
0
146
0.0
  0
ENDTAB
  0
TABLE
  2
LTYPE
  5
2
330
0
100
AcDbSymbolTable
 70
3
  0
LTYPE
  5
24
330
2
100
AcDbSymbolTableRecord
100
AcDbLinetypeTableRecord
  2
ByBlock
 70
0
  3

 72
65
 73
0
 40
0.0
  0
LTYPE
  5
25
330
2
100
AcDbSymbolTableRecord
100
AcDbLinetypeTableRecord
  2
ByLayer
 70
0
  3

 72
65
 73
0
 40
0.0
  0
LTYPE
  5
26
330
2
100
AcDbSymbolTableRecord
100
AcDbLinetypeTableRecord
  2
Continuous
 70
0
  3

 72
65
 73
0
 40
0.0
  0
ENDTAB
  0
TABLE
  2
LAYER
  5
1
330
0
100
AcDbSymbolTable
 70
2
  0
LAYER
  5
27
330
1
100
AcDbSymbolTableRecord
100
AcDbLayerTableRecord
  2
0
 70
0
 62
7
  6
Continuous
370
-3
390
13
347
21
  0
LAYER
  5
28
330
1
100
AcDbSymbolTableRecord
100
AcDbLayerTableRecord
  2
Defpoints
 70
0
 62
7
  6
Continuous
290
0
370
-3
390
13
347
21
  0
ENDTAB
  0
TABLE
  2
STYLE
  5
5
330
0
100
AcDbSymbolTable
 70
1
  0
STYLE
  5
29
330
5
100
AcDbSymbolTableRecord
100
AcDbTextStyleTableRecord
  2
Standard
 70
0
 40
0.0
 41
1.0
 50
0.0
 71
0
 42
2.5
  3
txt
  4

  0
ENDTAB
  0
TABLE
  2
VIEW
  5
7
330
0
100
AcDbSymbolTable
 70
0
  0
ENDTAB
  0
TABLE
  2
UCS
  5
6
330
0
100
AcDbSymbolTable
 70
0
  0
ENDTAB
  0
TABLE
  2
APPID
  5
3
330
0
100
AcDbSymbolTable
 70
3
  0
APPID
  5
2A
330
3
100
AcDbSymbolTableRecord
100
AcDbRegAppTableRecord
  2
ACAD
 70
0
  0
APPID
  5
30
330
3
100
AcDbSymbolTableRecord
100
AcDbRegAppTableRecord
  2
HATCHBACKGROUNDCOLOR
 70
0
  0
APPID
  5
31
330
3
100
AcDbSymbolTableRecord
100
AcDbRegAppTableRecord
  2
EZDXF
 70
0
  0
ENDTAB
  0
TABLE
  2
DIMSTYLE
  5
4
330
0
100
AcDbSymbolTable
 70
1
100
AcDbDimStyleTable
  0
DIMSTYLE
105
2B
330
4
100
AcDbSymbolTableRecord
100
AcDbDimStyleTableRecord
  2
Standard
 70
0
 40
1.0
 41
2.5
 42
0.625
 43
3.75
 44
1.25
 45
0.0
 46
0.0
 47
0.0
 48
0.0
 49
2.5
140
2.5
141
2.5
142
0.0
143
0.03937007874
144
1.0
145
0.0
146
1.0
147
0.625
148
0.0
 69
0
 70
0
 71
0
 72
0
 73
0
 74
0
 75
0
 76
0
 77
1
 78
8
 79
3
170
0
171
3
172
1
173
0
174
0
175
0
176
0
177
0
178
0
179
2
271
2
272
2
273
2
274
3
275
0
276
0
277
2
278
44
279
0
280
0
281
0
282
0
283
0
284
8
285
0
286
0
288
0
289
3
290
0
371
-2
372
-2
  0
ENDTAB
  0
TABLE
  2
BLOCK_RECORD
  5
9
330
0
100
AcDbSymbolTable
 70
2
  0
BLOCK_RECORD
  5
17
330
9
100
AcDbSymbolTableRecord
100
AcDbBlockTableRecord
  2
*Model_Space
340
1A
 70
0
280
1
281
0
  0
BLOCK_RECORD
  5
1B
330
9
100
AcDbSymbolTableRecord
100
AcDbBlockTableRecord
  2
*Paper_Space
340
1E
 70
0
280
1
281
0
  0
ENDTAB
  0
ENDSEC
  0
SECTION
  2
BLOCKS
  0
BLOCK
  5
18
330
17
100
AcDbEntity
  8
0
100
AcDbBlockBegin
  2
*Model_Space
 70
0
 10
0.0
 20
0.0
 30
0.0
  3
*Model_Space
  1

  0
ENDBLK
  5
19
330
17
100
AcDbEntity
  8
0
100
AcDbBlockEnd
  0
BLOCK
  5
1C
330
1B
100
AcDbEntity
  8
0
100
AcDbBlockBegin
  2
*Paper_Space
 70
0
 10
0.0
 20
0.0
 30
0.0
  3
*Paper_Space
  1

  0
ENDBLK
  5
1D
330
1B
100
AcDbEntity
  8
0
100
AcDbBlockEnd
  0
ENDSEC
  0
SECTION
  2
ENTITIES
  0
LWPOLYLINE
  5
2F
330
17
100
AcDbEntity
  8
PROFILE
 62
1
100
AcDbPolyline
 90
408
 70
128
 10
-1022.0325680396443
 20
40.0
 10
-1022.0297289007664
 20
40.10050251256281
 10
-1022.0245184713712
 20
40.201005025125625
 10
-1022.0177442801978
 20
40.301507537688444
 10
-1022.009689747272
 20
40.40201005025125
 10
-1022.0005168020108
 20
40.50251256281407
 10
-1021.9903325171008
 20
40.60301507537689
 10
-1021.9792150897922
 20
40.70351758793969
 10
-1021.9672234610313
 20
40.80402010050251
 10
-1021.9544044446988
 20
40.904522613065325
 10
-1021.9407966348383
 20
41.00502512562814
 10
-1021.9264315688241
 20
41.10552763819096
 10
-1021.9113357951876
 20
41.20603015075376
 10
-1021.8955320653255
 20
41.30653266331658
 10
-1021.8790404281126
 20
41.40703517587939
 10
-1021.8618782383454
 20
41.507537688442206
 10
-1021.8440604252716
 20
41.608040201005025
 10
-1021.8256004131938
 20
41.70854271356784
 10
-1021.8065097829826
 20
41.80904522613065
 10
-1021.7867990916261
 20
41.90954773869346
 10
-1021.766477935292
 20
42.01005025125628
 10
-1021.7455549493274
 20
42.11055276381909
 10
-1021.7240378082598
 20
42.211055276381906
 10
-1021.7019332257961
 20
42.311557788944725
 10
-1021.6792473831397
 20
42.41206030150754
 10
-1021.6559859140328
 20
42.51256281407035
 10
-1021.6321536370738
 20
42.61306532663317
 10
-1021.6077550081413
 20
42.713567839195974
 10
-1021.582794120868
 20
42.814070351758794
 10
-1021.5572747066394
 20
42.91457286432161
 10
-1021.5312001345951
 20
43.01507537688442
 10
-1021.5045734116278
 20
43.11557788944724
 10
-1021.4773971823839
 20
43.21608040201005
 10
-1021.4496737292634
 20
43.31658291457286
 10
-1021.4214049724196
 20
43.41708542713568
 10
-1021.392592577068
 20
43.51758793969849
 10
-1021.3632382841913
 20
43.618090452261306
 10
-1021.3333432674416
 20
43.71859296482412
 10
-1021.3029084875274
 20
43.81909547738693
 10
-1021.2719347454455
 20
43.91959798994975
 10
-1021.2404226824812
 20
44.02010050251256
 10
-1021.2083727802082
 20
44.120603015075375
 10
-1021.1757853604885
 20
44.22110552763819
 10
-1021.1426605854729
 20
44.321608040201006
 10
-1021.1089984576003
 20
44.42211055276382
 10
-1021.074798819598
 20
44.52261306532663
 10
-1021.0400613544818
 20
44.62311557788945
 10
-1021.0047855855563
 20
44.723618090452256
 10
-1020.9689708764139
 20
44.824120603015075
 10
-1020.9326164309357
 20
44.92462311557789
 10
-1020.8957212932913
 20
45.0251256281407
 10
-1020.8582843479387
 20
45.12562814070352
 10
-1020.8203043574706
 20
45.226130653266324
 10
-1020.7817801249207
 20
45.32663316582914
 10
-1020.7427102384198
 20
45.42713567839196
 10
-1020.7030931519312
 20
45.52763819095477
 10
-1020.6629272053523
 20
45.62814070351759
 10
-1020.622210624515
 20
45.7286432160804
 10
-1020.5809415211855
 20
45.82914572864321
 10
-1020.5391178930644
 20
45.92964824120603
 10
-1020.4967376237862
 20
46.030150753768844
 10
-1020.4537984829201
 20
46.130653266331656
 10
-1020.4102981259693
 20
46.23115577889447
 10
-1020.3662340943716
 20
46.33165829145729
 10
-1020.321603815499
 20
46.4321608040201
 10
-1020.2764046026575
 20
46.53266331658291
 10
-1020.2306336550878
 20
46.63316582914573
 10
-1020.1842880579649
 20
46.73366834170854
 10
-1020.1373647823976
 20
46.834170854271356
 10
-1020.0898606854297
 20
46.934673366834176
 10
-1020.0417725100386
 20
47.03517587939698
 10
-1019.9930968851368
 20
47.1356783919598
 10
-1019.9438303255702
 20
47.23618090452261
 10
-1019.8939692321196
 20
47.336683417085425
 10
-1019.8435098915
 20
47.437185929648244
 10
-1019.7924484763607
 20
47.53768844221105
 10
-1019.7407810452852
 20
47.63819095477387
 10
-1019.6885035427913
 20
47.73869346733668
 10
-1019.6356117856003
 20
47.83919597989949
 10
-1019.5821007252797
 20
47.93969849246231
 10
-1019.5279657567575
 20
48.040201005025125
 10
-1019.4732026335689
 20
48.14070351758794
 10
-1019.4178069188122
 20
48.24120603015075
 10
-1019.3617739851469
 20
48.34170854271357
 10
-1019.3050990147952
 20
48.44221105527638
 10
-1019.2477769995414
 20
48.54271356783919
 10
-1019.1898027407317
 20
48.64321608040201
 10
-1019.1311708492746
 20
48.74371859296482
 10
-1019.0718757456407
 20
48.84422110552764
 10
-1019.0119116598628
 20
48.94472361809045
 10
-1018.951272631536
 20
49.04522613065326
 10
-1018.889952509817
 20
49.14572864321608
 10
-1018.8279449534253
 20
49.24623115577889
 10
-1018.7652434306423
 20
49.346733668341706
 10
-1018.7018412193112
 20
49.447236180904525
 10
-1018.6377314068378
 20
49.54773869346733
 10
-1018.57290689019
 20
49.64824120603015
 10
-1018.5073603758975
 20
49.74874371859296
 10
-1018.4410843800525
 20
49.849246231155774
 10
-1018.3740712283092
 20
49.949748743718594
 10
-1018.306313055884
 20
50.050251256281406
 10
-1018.2378018075553
 20
50.15075376884422
 10
-1018.1685292376638
 20
50.25125628140703
 10
-1018.0984869101125
 20
50.35175879396985
 10
-1018.027666198366
 20
50.45226130653266
 10
-1017.9560582854515
 20
50.552763819095475
 10
-1017.8836541639583
 20
50.653266331658294
 10
-1017.8104446360378
 20
50.7537688442211
 10
-1017.7364203134034
 20
50.85427135678392
 10
-1017.6615716173308
 20
50.95477386934674
 10
-1017.5858878037706
 20
51.05527638190955
 10
-1017.5093558783375
 20
51.15577889447236
 10
-1017.4319657126293
 20
51.256281407035175
 10
-1017.3537069176111
 20
51.35678391959799
 10
-1017.274568567594
 20
51.45728643216081
 10
-1017.1945392002344
 20
51.55778894472362
 10
-1017.1136068165345
 20
51.65829145728643
 10
-1017.0317588808417
 20
51.75879396984924
 10
-1016.9489823208496
 20
51.859296482412056
 10
-1016.8652635275969
 20
51.959798994974875
 10
-1016.7805883554679
 20
52.060301507537694
 10
-1016.6949421221927
 20
52.1608040201005
 10
-1016.608309608847
 20
52.26130653266332
 10
-1016.5206750598517
 20
52.36180904522613
 10
-1016.4320221829736
 20
52.462311557788944
 10
-1016.3423341493252
 20
52.56281407035176
 10
-1016.2515935933643
 20
52.663316582914575
 10
-1016.1597826128943
 20
52.76381909547739
 10
-1016.0668827690645
 20
52.8643216080402
 10
-1015.9728750863693
 20
52.96482412060301
 10
-1015.877740052649
 20
53.06532663316583
 10
-1015.7814576190895
 20
53.165829145728644
 10
-1015.6840072002221
 20
53.266331658291456
 10
-1015.5853676739239
 20
53.36683417085427
 10
-1015.4855173814174
 20
53.46733668341709
 10
-1015.3844341272707
 20
53.5678391959799
 10
-1015.282091095392
 20
53.66834170854271
 10
-1015.1784600447226
 20
53.76884422110553
 10
-1015.0735170544068
 20
53.86934673366834
 10
-1014.9672364545254
 20
53.969849246231156
 10
-1014.8595907967278
 20
54.070351758793976
 10
-1014.7505508542321
 20
54.17085427135678
 10
-1014.6400856218245
 20
54.2713567839196
 10
-1014.5281623158606
 20
54.37185929648241
 10
-1014.414746374264
 20
54.472361809045225
 10
-1014.2998014565273
 20
54.572864321608044
 10
-1014.1832894437117
 20
54.67336683417086
 10
-1014.0651704384467
 20
54.77386934673367
 10
-1013.9454027649308
 20
54.87437185929648
 10
-1013.8239429689309
 20
54.9748743718593
 10
-1013.7007458177827
 20
55.07537688442211
 10
-1013.5757643003903
 20
55.175879396984925
 10
-1013.4489496272267
 20
55.27638190954774
 10
-1013.3202512303333
 20
55.37688442211055
 10
-1013.1896167633203
 20
55.47738693467337
 10
-1013.0569889725058
 20
55.57788944723618
 10
-1012.9222981089889
 20
55.678391959798994
 10
-1012.7854842983774
 20
55.77889447236181
 10
-1012.6464832725984
 20
55.87939698492462
 10
-1012.5052243160097
 20
55.97989949748744
 10
-1012.3616302653998
 20
56.08040201005026
 10
-1012.2156175099874
 20
56.18090452261306
 10
-1012.0670959914225
 20
56.28140703517588
 10
-1011.9159692037855
 20
56.381909547738694
 10
-1011.7621341935873
 20
56.482412060301506
 10
-1011.6054815597696
 20
56.582914572864325
 10
-1011.445895453705
 20
56.68341708542714
 10
-1011.2832535791964
 20
56.78391959798995
 10
-1011.1174271924776
 20
56.88442211055276
 10
-1010.9482783255824
 20
56.984924623115575
 10
-1010.7756369170731
 20
57.085427135678394
 10
-1010.5993432836502
 20
57.185929648241206
 10
-1010.4192217766342
 20
57.28643216080402
 10
-1010.2350714741153
 20
57.38693467336683
 10
-1010.0466661809527
 20
57.48743718592965
 10
-1009.8537544287742
 20
57.58793969849246
 10
-1009.6560594759773
 20
57.688442211055275
 10
-1009.4532793077282
 20
57.788944723618094
 10
-1009.2450866359623
 20
57.8894472361809
 10
-1009.0311251722461
 20
57.98994974874372
 10
-1008.8109591386353
 20
58.09045226130654
 10
-1008.5841385631654
 20
58.19095477386934
 10
-1008.3501330672829
 20
58.29145728643216
 10
-1008.1083060980569
 20
58.391959798994975
 10
-1007.8579149281798
 20
58.49246231155779
 10
-1007.5981106559664
 20
58.59296482412061
 10
-1007.3279295492854
 20
58.693467336683426
 10
-1007.0461779466204
 20
58.79396984924623
 10
-1006.7514693619779
 20
58.89447236180904
 10
-1006.4419978786383
 20
58.99497487437186
 10
-1006.1154814741192
 20
59.095477386934675
 10
-1005.7690989330066
 20
59.195979899497495
 10
-1005.3991224837047
 20
59.2964824120603
 10
-1005.0003176627754
 20
59.39698492462311
 10
-1004.5651454698223
 20
59.49748743718593
 10
-1004.0823103020397
 20
59.597989949748744
 10
-1003.5323766286012
 20
59.69849246231156
 10
-1002.8779977089893
 20
59.798994974874375
 10
-1002.0223922149423
 20
59.89949748743718
 10
-1000.0
 20
60.0
 10
-777.7777777777778
 20
60.0
 10
-555.5555555555555
 20
60.0
 10
-333.33333333333326
 20
60.0
 10
-111.11111111111109
 20
60.0
 10
111.11111111111109
 20
60.0
 10
333.3333333333335
 20
60.0
 10
555.5555555555557
 20
60.0
 10
777.7777777777778
 20
60.0
 10
1000.0
 20
60.0
 10
1002.0223922149423
 20
59.89949748743718
 10
1002.8779977089893
 20
59.798994974874375
 10
1003.5323766286012
 20
59.69849246231156
 10
1004.0823103020397
 20
59.597989949748744
 10
1004.5651454698223
 20
59.49748743718593
 10
1005.0003176627754
 20
59.39698492462311
 10
1005.3991224837047
 20
59.2964824120603
 10
1005.7690989330066
 20
59.195979899497495
 10
1006.1154814741192
 20
59.095477386934675
 10
1006.4419978786383
 20
58.99497487437186
 10
1006.7514693619779
 20
58.89447236180904
 10
1007.0461779466204
 20
58.79396984924623
 10
1007.3279295492854
 20
58.693467336683426
 10
1007.5981106559664
 20
58.59296482412061
 10
1007.8579149281798
 20
58.49246231155779
 10
1008.1083060980569
 20
58.391959798994975
 10
1008.3501330672829
 20
58.29145728643216
 10
1008.5841385631654
 20
58.19095477386934
 10
1008.8109591386353
 20
58.09045226130654
 10
1009.0311251722461
 20
57.98994974874372
 10
1009.2450866359623
 20
57.8894472361809
 10
1009.4532793077282
 20
57.788944723618094
 10
1009.6560594759773
 20
57.688442211055275
 10
1009.8537544287742
 20
57.58793969849246
 10
1010.0466661809527
 20
57.48743718592965
 10
1010.2350714741153
 20
57.38693467336683
 10
1010.4192217766342
 20
57.28643216080402
 10
1010.5993432836502
 20
57.185929648241206
 10
1010.7756369170731
 20
57.085427135678394
 10
1010.9482783255824
 20
56.984924623115575
 10
1011.1174271924776
 20
56.88442211055276
 10
1011.2832535791964
 20
56.78391959798995
 10
1011.445895453705
 20
56.68341708542714
 10
1011.6054815597696
 20
56.582914572864325
 10
1011.7621341935873
 20
56.482412060301506
 10
1011.9159692037855
 20
56.381909547738694
 10
1012.0670959914225
 20
56.28140703517588
 10
1012.2156175099874
 20
56.18090452261306
 10
1012.3616302653998
 20
56.08040201005026
 10
1012.5052243160097
 20
55.97989949748744
 10
1012.6464832725984
 20
55.87939698492462
 10
1012.7854842983774
 20
55.77889447236181
 10
1012.9222981089889
 20
55.678391959798994
 10
1013.0569889725058
 20
55.57788944723618
 10
1013.1896167633203
 20
55.47738693467337
 10
1013.3202512303333
 20
55.37688442211055
 10
1013.4489496272267
 20
55.27638190954774
 10
1013.5757643003903
 20
55.175879396984925
 10
1013.7007458177827
 20
55.07537688442211
 10
1013.8239429689309
 20
54.9748743718593
 10
1013.9454027649308
 20
54.87437185929648
 10
1014.0651704384467
 20
54.77386934673367
 10
1014.1832894437117
 20
54.67336683417086
 10
1014.2998014565273
 20
54.572864321608044
 10
1014.414746374264
 20
54.472361809045225
 10
1014.5281623158606
 20
54.37185929648241
 10
1014.6400856218245
 20
54.2713567839196
 10
1014.7505508542321
 20
54.17085427135678
 10
1014.8595907967278
 20
54.070351758793976
 10
1014.9672364545254
 20
53.969849246231156
 10
1015.0735170544068
 20
53.86934673366834
 10
1015.1784600447226
 20
53.76884422110553
 10
1015.282091095392
 20
53.66834170854271
 10
1015.3844341272707
 20
53.5678391959799
 10
1015.4855173814174
 20
53.46733668341709
 10
1015.5853676739239
 20
53.36683417085427
 10
1015.6840072002221
 20
53.266331658291456
 10
1015.7814576190895
 20
53.165829145728644
 10
1015.877740052649
 20
53.06532663316583
 10
1015.9728750863693
 20
52.96482412060301
 10
1016.0668827690645
 20
52.8643216080402
 10
1016.1597826128943
 20
52.76381909547739
 10
1016.2515935933643
 20
52.663316582914575
 10
1016.3423341493252
 20
52.56281407035176
 10
1016.4320221829736
 20
52.462311557788944
 10
1016.5206750598517
 20
52.36180904522613
 10
1016.608309608847
 20
52.26130653266332
 10
1016.6949421221927
 20
52.1608040201005
 10
1016.7805883554679
 20
52.060301507537694
 10
1016.8652635275969
 20
51.959798994974875
 10
1016.9489823208496
 20
51.859296482412056
 10
1017.0317588808417
 20
51.75879396984924
 10
1017.1136068165345
 20
51.65829145728643
 10
1017.1945392002344
 20
51.55778894472362
 10
1017.274568567594
 20
51.45728643216081
 10
1017.3537069176111
 20
51.35678391959799
 10
1017.4319657126293
 20
51.256281407035175
 10
1017.5093558783375
 20
51.15577889447236
 10
1017.5858878037706
 20
51.05527638190955
 10
1017.6615716173308
 20
50.95477386934674
 10
1017.7364203134034
 20
50.85427135678392
 10
1017.8104446360378
 20
50.7537688442211
 10
1017.8836541639583
 20
50.653266331658294
 10
1017.9560582854515
 20
50.552763819095475
 10
1018.027666198366
 20
50.45226130653266
 10
1018.0984869101125
 20
50.35175879396985
 10
1018.1685292376638
 20
50.25125628140703
 10
1018.2378018075553
 20
50.15075376884422
 10
1018.306313055884
 20
50.050251256281406
 10
1018.3740712283092
 20
49.949748743718594
 10
1018.4410843800525
 20
49.849246231155774
 10
1018.5073603758975
 20
49.74874371859296
 10
1018.57290689019
 20
49.64824120603015
 10
1018.6377314068378
 20
49.54773869346733
 10
1018.7018412193112
 20
49.447236180904525
 10
1018.7652434306423
 20
49.346733668341706
 10
1018.8279449534253
 20
49.24623115577889
 10
1018.889952509817
 20
49.14572864321608
 10
1018.951272631536
 20
49.04522613065326
 10
1019.0119116598628
 20
48.94472361809045
 10
1019.0718757456407
 20
48.84422110552764
 10
1019.1311708492746
 20
48.74371859296482
 10
1019.1898027407317
 20
48.64321608040201
 10
1019.2477769995414
 20
48.54271356783919
 10
1019.3050990147952
 20
48.44221105527638
 10
1019.3617739851469
 20
48.34170854271357
 10
1019.4178069188122
 20
48.24120603015075
 10
1019.4732026335689
 20
48.14070351758794
 10
1019.5279657567575
 20
48.040201005025125
 10
1019.5821007252797
 20
47.93969849246231
 10
1019.6356117856003
 20
47.83919597989949
 10
1019.6885035427913
 20
47.73869346733668
 10
1019.7407810452852
 20
47.63819095477387
 10
1019.7924484763607
 20
47.53768844221105
 10
1019.8435098915
 20
47.437185929648244
 10
1019.8939692321196
 20
47.336683417085425
 10
1019.9438303255702
 20
47.23618090452261
 10
1019.9930968851368
 20
47.1356783919598
 10
1020.0417725100386
 20
47.03517587939698
 10
1020.0898606854297
 20
46.934673366834176
 10
1020.1373647823976
 20
46.834170854271356
 10
1020.1842880579649
 20
46.73366834170854
 10
1020.2306336550878
 20
46.63316582914573
 10
1020.2764046026575
 20
46.53266331658291
 10
1020.321603815499
 20
46.4321608040201
 10
1020.3662340943716
 20
46.33165829145729
 10
1020.4102981259693
 20
46.23115577889447
 10
1020.4537984829201
 20
46.130653266331656
 10
1020.4967376237862
 20
46.030150753768844
 10
1020.5391178930644
 20
45.92964824120603
 10
1020.5809415211855
 20
45.82914572864321
 10
1020.622210624515
 20
45.7286432160804
 10
1020.6629272053523
 20
45.62814070351759
 10
1020.7030931519312
 20
45.52763819095477
 10
1020.7427102384198
 20
45.42713567839196
 10
1020.7817801249207
 20
45.32663316582914
 10
1020.8203043574706
 20
45.226130653266324
 10
1020.8582843479387
 20
45.12562814070352
 10
1020.8957212932913
 20
45.0251256281407
 10
1020.9326164309357
 20
44.92462311557789
 10
1020.9689708764139
 20
44.824120603015075
 10
1021.0047855855563
 20
44.723618090452256
 10
1021.0400613544818
 20
44.62311557788945
 10
1021.074798819598
 20
44.52261306532663
 10
1021.1089984576003
 20
44.42211055276382
 10
1021.1426605854729
 20
44.321608040201006
 10
1021.1757853604885
 20
44.22110552763819
 10
1021.2083727802082
 20
44.120603015075375
 10
1021.2404226824812
 20
44.02010050251256
 10
1021.2719347454455
 20
43.91959798994975
 10
1021.3029084875274
 20
43.81909547738693
 10
1021.3333432674416
 20
43.71859296482412
 10
1021.3632382841913
 20
43.618090452261306
 10
1021.392592577068
 20
43.51758793969849
 10
1021.4214049724196
 20
43.41708542713568
 10
1021.4496737292634
 20
43.31658291457286
 10
1021.4773971823839
 20
43.21608040201005
 10
1021.5045734116278
 20
43.11557788944724
 10
1021.5312001345951
 20
43.01507537688442
 10
1021.5572747066394
 20
42.91457286432161
 10
1021.582794120868
 20
42.814070351758794
 10
1021.6077550081413
 20
42.713567839195974
 10
1021.6321536370738
 20
42.61306532663317
 10
1021.6559859140328
 20
42.51256281407035
 10
1021.6792473831397
 20
42.41206030150754
 10
1021.7019332257961
 20
42.311557788944725
 10
1021.7240378082598
 20
42.211055276381906
 10
1021.7455549493274
 20
42.11055276381909
 10
1021.766477935292
 20
42.01005025125628
 10
1021.7867990916261
 20
41.90954773869346
 10
1021.8065097829826
 20
41.80904522613065
 10
1021.8256004131938
 20
41.70854271356784
 10
1021.8440604252716
 20
41.608040201005025
 10
1021.8618782383454
 20
41.507537688442206
 10
1021.8790404281126
 20
41.40703517587939
 10
1021.8955320653255
 20
41.30653266331658
 10
1021.9113357951876
 20
41.20603015075376
 10
1021.9264315688241
 20
41.10552763819096
 10
1021.9407966348383
 20
41.00502512562814
 10
1021.9544044446988
 20
40.904522613065325
 10
1021.9672234610313
 20
40.80402010050251
 10
1021.9792150897922
 20
40.70351758793969
 10
1021.9903325171008
 20
40.60301507537689
 10
1022.0005168020108
 20
40.50251256281407
 10
1022.009689747272
 20
40.40201005025125
 10
1022.0177442801978
 20
40.301507537688444
 10
1022.0245184713712
 20
40.201005025125625
 10
1022.0297289007664
 20
40.10050251256281
 10
1022.0325680396443
 20
40.0
  0
ENDSEC
  0
SECTION
  2
OBJECTS
  0
DICTIONARY
  5
A
330
0
100
AcDbDictionary
281
1
  3
ACAD_COLOR
350
B
  3
ACAD_GROUP
350
C
  3
ACAD_LAYOUT
350
D
  3
ACAD_MATERIAL
350
E
  3
ACAD_MLEADERSTYLE
350
F
  3
ACAD_MLINESTYLE
350
10
  3
ACAD_PLOTSETTINGS
350
11
  3
ACAD_PLOTSTYLENAME
350
12
  3
ACAD_SCALELIST
350
14
  3
ACAD_TABLESTYLE
350
15
  3
ACAD_VISUALSTYLE
350
16
  3
EZDXF_META
350
2D
  0
DICTIONARY
  5
B
330
A
100
AcDbDictionary
281
1
  0
DICTIONARY
  5
C
330
A
100
AcDbDictionary
281
1
  0
DICTIONARY
  5
D
330
A
100
AcDbDictionary
281
1
  3
Model
350
1A
  3
Layout1
350
1E
  0
DICTIONARY
  5
E
330
A
100
AcDbDictionary
281
1
  3
ByBlock
350
1F
  3
ByLayer
350
20
  3
Global
350
21
  0
DICTIONARY
  5
F
330
A
100
AcDbDictionary
281
1
  3
Standard
350
2C
  0
DICTIONARY
  5
10
330
A
100
AcDbDictionary
281
1
  3
Standard
350
22
  0
DICTIONARY
  5
11
330
A
100
AcDbDictionary
281
1
  0
ACDBDICTIONARYWDFLT
  5
12
330
A
100
AcDbDictionary
281
1
  3
Normal
350
13
100
AcDbDictionaryWithDefault
340
13
  0
ACDBPLACEHOLDER
  5
13
330
12
  0
DICTIONARY
  5
14
330
A
100
AcDbDictionary
281
1
  0
DICTIONARY
  5
15
330
A
100
AcDbDictionary
281
1
  0
DICTIONARY
  5
16
330
A
100
AcDbDictionary
281
1
  0
LAYOUT
  5
1A
330
D
100
AcDbPlotSettings
  1

  4
A3
  6

 40
7.5
 41
20.0
 42
7.5
 43
20.0
 44
420.0
 45
297.0
 46
0.0
 47
0.0
 48
0.0
 49
0.0
140
0.0
141
0.0
142
1.0
143
1.0
 70
1024
 72
1
 73
0
 74
5
  7

 75
16
 76
0
 77
2
 78
300
147
1.0
148
0.0
149
0.0
100
AcDbLayout
  1
Model
 70
1
 71
0
 10
0.0
 20
0.0
 11
420.0
 21
297.0
 12
0.0
 22
0.0
 32
0.0
 14
1e+20
 24
1e+20
 34
1e+20
 15
-1e+20
 25
-1e+20
 35
-1e+20
146
0.0
 13
0.0
 23
0.0
 33
0.0
 16
1.0
 26
0.0
 36
0.0
 17
0.0
 27
1.0
 37
0.0
 76
1
330
17
  0
LAYOUT
  5
1E
330
D
100
AcDbPlotSettings
  1

  4
A3
  6

 40
7.5
 41
20.0
 42
7.5
 43
20.0
 44
420.0
 45
297.0
 46
0.0
 47
0.0
 48
0.0
 49
0.0
140
0.0
141
0.0
142
1.0
143
1.0
 70
0
 72
1
 73
0
 74
5
  7

 75
16
 76
0
 77
2
 78
300
147
1.0
148
0.0
149
0.0
100
AcDbLayout
  1
Layout1
 70
1
 71
1
 10
0.0
 20
0.0
 11
420.0
 21
297.0
 12
0.0
 22
0.0
 32
0.0
 14
1e+20
 24
1e+20
 34
1e+20
 15
-1e+20
 25
-1e+20
 35
-1e+20
146
0.0
 13
0.0
 23
0.0
 33
0.0
 16
1.0
 26
0.0
 36
0.0
 17
0.0
 27
1.0
 37
0.0
 76
1
330
1B
  0
MATERIAL
  5
1F
102
{ACAD_REACTORS
330
E
102
}
330
E
100
AcDbMaterial
  1
ByBlock
  2

 70
0
 40
1.0
 71
1
 41
1.0
 91
-1023410177
 42
1.0
 72
1
  3

 73
1
 74
1
 75
1
 44
0.5
 73
0
 45
1.0
 46
1.0
 77
1
  4

 78
1
 79
1
170
1
 48
1.0
171
1
  6

172
1
173
1
174
1
140
1.0
141
1.0
175
1
  7

176
1
177
1
178
1
143
1.0
179
1
  8

270
1
271
1
272
1
145
1.0
146
1.0
273
1
  9

274
1
275
1
276
1
 42
1.0
 72
1
  3

 73
1
 74
1
 75
1
 94
63
  0
MATERIAL
  5
20
102
{ACAD_REACTORS
330
E
102
}
330
E
100
AcDbMaterial
  1
ByLayer
  2

 70
0
 40
1.0
 71
1
 41
1.0
 91
-1023410177
 42
1.0
 72
1
  3

 73
1
 74
1
 75
1
 44
0.5
 73
0
 45
1.0
 46
1.0
 77
1
  4

 78
1
 79
1
170
1
 48
1.0
171
1
  6

172
1
173
1
174
1
140
1.0
141
1.0
175
1
  7

176
1
177
1
178
1
143
1.0
179
1
  8

270
1
271
1
272
1
145
1.0
146
1.0
273
1
  9

274
1
275
1
276
1
 42
1.0
 72
1
  3

 73
1
 74
1
 75
1
 94
63
  0
MATERIAL
  5
21
102
{ACAD_REACTORS
330
E
102
}
330
E
100
AcDbMaterial
  1
Global
  2

 70
0
 40
1.0
 71
1
 41
1.0
 91
-1023410177
 42
1.0
 72
1
  3

 73
1
 74
1
 75
1
 44
0.5
 73
0
 45
1.0
 46
1.0
 77
1
  4

 78
1
 79
1
170
1
 48
1.0
171
1
  6

172
1
173
1
174
1
140
1.0
141
1.0
175
1
  7

176
1
177
1
178
1
143
1.0
179
1
  8

270
1
271
1
272
1
145
1.0
146
1.0
273
1
  9

274
1
275
1
276
1
 42
1.0
 72
1
  3

 73
1
 74
1
 75
1
 94
63
  0
MLINESTYLE
  5
22
102
{ACAD_REACTORS
330
10
102
}
330
10
100
AcDbMlineStyle
  2
Standard
 70
0
  3

 62
256
 51
90.0
 52
90.0
 71
2
 49
0.5
 62
256
  6
BYLAYER
 49
-0.5
 62
256
  6
BYLAYER
  0
MLEADERSTYLE
  5
2C
102
{ACAD_REACTORS
330
F
102
}
330
F
100
AcDbMLeaderStyle
179
2
170
2
171
1
172
0
 90
2
 40
0.0
 41
0.0
173
1
 91
-1056964608
 92
-2
290
1
 42
2.0
291
1
 43
8.0
  3
Standard
 44
4.0
300

342
29
174
1
175
1
176
0
178
1
 93
-1056964608
 45
4.0
292
0
297
0
 46
4.0
 94
-1056964608
 47
1.0
 49
1.0
140
1.0
294
1
141
0.0
177
0
142
1.0
295
0
296
0
143
3.75
271
0
272
9
273
9
  0
DICTIONARY
  5
2D
330
A
100
AcDbDictionary
280
1
281
1
  3
CREATED_BY_EZDXF
350
2E
  3
WRITTEN_BY_EZDXF
350
32
  0
DICTIONARYVAR
  5
2E
330
2D
100
DictionaryVariables
280
0
  1
1.4.3 @ 2025-12-10T12:34:00.846801+00:00
  0
DICTIONARYVAR
  5
32
330
2D
100
DictionaryVariables
280
0
  1
1.4.3 @ 2025-12-10T12:34:00.849893+00:00
  0
ENDSEC
  0
EOF
